<?xml version="1.0" encoding="utf-8"?>
<!-- Generator: Adobe Illustrator 22.0.0, SVG Export Plug-In . SVG Version: 6.00 Build 0)  -->
<svg version="1.1" xmlns="http://www.w3.org/2000/svg" xmlns:xlink="http://www.w3.org/1999/xlink" x="0px" y="0px"
	 viewBox="0 0 1920 1080" style="enable-background:new 0 0 1920 1080;" xml:space="preserve">
<style type="text/css">
	.st0{display:none;}
	.st1{display:inline;fill:#7B8D92;stroke:#000000;stroke-width:4;stroke-miterlimit:10;}
	.st2{display:inline;fill:#805F25;stroke:#000000;stroke-width:2;stroke-miterlimit:10;}
	.st3{display:inline;fill:none;stroke:#000000;stroke-width:4;stroke-miterlimit:10;}
	.st4{display:inline;fill:#3D2211;stroke:#000000;stroke-width:4;stroke-miterlimit:10;}
	.st5{display:inline;fill:none;stroke:#000000;stroke-width:2;stroke-miterlimit:10;}
	.st6{display:inline;fill:#512D17;stroke:#000000;stroke-width:4;stroke-miterlimit:10;}
	.st7{display:inline;fill:#FAFFE1;stroke:#000000;stroke-width:3;stroke-miterlimit:10;}
	.st8{display:inline;fill:#7D8071;stroke:#000000;stroke-width:3;stroke-miterlimit:10;}
	.st9{display:inline;fill:#2D535E;}
	.st10{display:inline;fill:#3D2211;}
	.st11{display:inline;fill:#7A7A7A;stroke:#000000;stroke-miterlimit:10;}
	.st12{display:inline;fill:#CACACA;stroke:#000000;stroke-width:3;stroke-miterlimit:10;}
	.st13{display:inline;fill:#A9D3B3;stroke:#000000;stroke-width:3;stroke-miterlimit:10;}
	.st14{display:inline;fill:#7E9E86;}
	.st15{display:inline;fill:#FF9C00;stroke:#000000;stroke-width:3;stroke-miterlimit:10;}
	.st16{display:inline;fill:#BF7500;}
	.st17{display:inline;fill:#B2249D;stroke:#000000;stroke-width:3;stroke-miterlimit:10;}
	.st18{display:inline;fill:#851B76;}
	.st19{display:inline;fill:#F4F4F4;}
	.st20{display:inline;fill:#85D4FF;}
	.st21{display:inline;fill:#7A7A7A;stroke:#000000;stroke-width:3;stroke-miterlimit:10;}
	.st22{display:inline;fill:#323232;stroke:#000000;stroke-width:3;stroke-miterlimit:10;}
	.st23{display:inline;fill:#323232;stroke:#000000;stroke-width:2;stroke-miterlimit:10;}
	.st24{display:inline;fill:#DBFFA2;stroke:#000000;stroke-width:2;stroke-miterlimit:10;}
	.st25{display:inline;}
	.st26{fill:#DF220F;}
	.st27{fill:#FF9B21;}
	.st28{fill:#FFC900;}
	.st29{display:inline;fill:#6E8051;stroke:#000000;stroke-miterlimit:10;}
	.st30{display:inline;fill:#8A4419;stroke:#000000;stroke-width:4;stroke-miterlimit:10;}
	.st31{display:inline;fill:#683313;stroke:#000000;stroke-width:4;stroke-miterlimit:10;}
	.st32{display:inline;fill:#221106;stroke:#000000;stroke-width:4;stroke-miterlimit:10;}
	.st33{display:inline;fill:none;stroke:#000000;stroke-width:3;stroke-miterlimit:10;}
	.st34{display:inline;fill:#FFEF59;stroke:#000000;stroke-width:3;stroke-miterlimit:10;}
	.st35{display:inline;fill:#666666;stroke:#000000;stroke-width:2;stroke-miterlimit:10;}
	.st36{display:inline;fill:#666666;stroke:#000000;stroke-width:3;stroke-miterlimit:10;}
	.st37{fill:#666666;}
	.st38{fill:#2D2828;}
	.st39{display:inline;fill:#A9ADAA;stroke:#000000;stroke-width:3;stroke-miterlimit:10;}
	.st40{display:inline;fill:#191919;stroke:#000000;stroke-width:3;stroke-miterlimit:10;}
	.st41{display:inline;fill:#71D584;stroke:#000000;stroke-width:3;stroke-miterlimit:10;}
	.st42{display:inline;fill:#D5D4D4;}
	.st43{fill:#3D2211;}
	.st44{fill:#4F676E;}
	.st45{fill:#A7B3B7;}
	.st46{fill:#512D17;}
	.st47{fill:#FFFF6D;}
	.st48{fill:#FFFFFF;}
	.st49{display:none;fill:#A7B3B7;}
	.st50{fill:#FFFFFF;stroke:#FFFFFF;stroke-miterlimit:10;}
	.st51{display:inline;fill:#7D8689;}
	.st52{display:inline;fill:#3B4D53;}
	.st53{display:inline;fill:#4F676E;}
	.st54{display:inline;fill:#A7B3B7;}
	.st55{display:inline;fill:#512D17;}
	.st56{display:inline;fill:#FFFF6D;}
	.st57{display:inline;fill:#FFFFFF;stroke:#FFFFFF;stroke-miterlimit:10;}
	.st58{fill:#7D8689;}
	.st59{fill:#3B4D53;}
</style>
<g id="Layer_1" class="st0">
	<g id="Layer_1_1_">
		<rect y="738" class="st1" width="520.2" height="342"/>
		<polyline class="st2" points="1399.3,1080 1919.6,1080 1919.6,0 1,0 0,738 570.1,735.8 		"/>
		<line class="st3" x1="-0.1" y1="361.6" x2="520.2" y2="361.6"/>
		<line class="st3" x1="-0.1" y1="454.6" x2="1465.6" y2="454.6"/>
		<line class="st3" x1="-0.1" y1="547.6" x2="1440.7" y2="547.6"/>
		<line class="st3" x1="-0.1" y1="640.6" x2="1431.1" y2="640.6"/>
		<path class="st4" d="M520.3,733.6"/>
		<path class="st4" d="M0,733.6"/>
		<line class="st3" x1="153.1" y1="0" x2="153.1" y2="82.6"/>
		<line class="st3" x1="427.6" y1="0" x2="427.6" y2="82.6"/>
		<line class="st3" x1="172.6" y1="82.6" x2="172.6" y2="175.6"/>
		<line class="st3" x1="397.6" y1="82.6" x2="397.6" y2="175.6"/>
		<line class="st3" x1="118.6" y1="175.6" x2="118.6" y2="268.6"/>
		<line class="st3" x1="342.1" y1="175.6" x2="342.1" y2="268.6"/>
		<line class="st3" x1="193.6" y1="268.6" x2="193.6" y2="361.6"/>
		<line class="st3" x1="444.1" y1="268.6" x2="444.1" y2="361.6"/>
		<line class="st3" x1="99.1" y1="361.6" x2="99.1" y2="454.6"/>
		<line class="st3" x1="309.1" y1="361.6" x2="309.1" y2="454.6"/>
		<line class="st3" x1="145.6" y1="454.6" x2="145.6" y2="547.6"/>
		<line class="st3" x1="375.1" y1="454.6" x2="375.1" y2="547.6"/>
		<line class="st3" x1="238.6" y1="547.6" x2="238.6" y2="640.6"/>
		<line class="st3" x1="421.6" y1="547.6" x2="421.6" y2="640.6"/>
		<line class="st3" x1="126.1" y1="640.6" x2="126.1" y2="733.6"/>
		<line class="st3" x1="349.6" y1="640.6" x2="349.6" y2="733.6"/>
		<line class="st5" x1="520.3" y1="733.6" x2="1399.5" y2="738"/>
		<line class="st3" x1="1399.3" y1="82.6" x2="1919.6" y2="82.6"/>
		<line class="st3" x1="-0.1" y1="82.6" x2="1399.3" y2="82.6"/>
		<line class="st3" x1="-0.1" y1="175.6" x2="1423.6" y2="175.6"/>
		<line class="st3" x1="0" y1="268.6" x2="1431.1" y2="268.6"/>
		<line class="st3" x1="1396.8" y1="175.6" x2="1917.1" y2="175.6"/>
		<line class="st3" x1="1396.8" y1="268.6" x2="1917.1" y2="268.6"/>
		<line class="st3" x1="1399.3" y1="361.6" x2="1919.6" y2="361.6"/>
		<line class="st3" x1="1399.3" y1="454.6" x2="1919.6" y2="454.6"/>
		<line class="st3" x1="1399.3" y1="547.6" x2="1919.6" y2="547.6"/>
		<line class="st3" x1="1399.3" y1="640.6" x2="1919.6" y2="640.6"/>
		<line class="st3" x1="1399.4" y1="733.6" x2="1919.7" y2="733.6"/>
		<line class="st3" x1="1396.8" y1="826.6" x2="1917.1" y2="826.6"/>
		<line class="st3" x1="1399.4" y1="919.6" x2="1919.7" y2="919.6"/>
		<line class="st3" x1="1399.4" y1="1003.6" x2="1919.7" y2="1003.6"/>
		<line class="st3" x1="1552.5" y1="0" x2="1552.5" y2="82.6"/>
		<line class="st3" x1="1827" y1="0" x2="1827" y2="82.6"/>
		<line class="st3" x1="1572" y1="82.6" x2="1572" y2="175.6"/>
		<line class="st3" x1="1797" y1="82.6" x2="1797" y2="175.6"/>
		<line class="st3" x1="1518" y1="175.6" x2="1518" y2="268.6"/>
		<line class="st3" x1="1741.5" y1="175.6" x2="1741.5" y2="268.6"/>
		<line class="st3" x1="1593" y1="268.6" x2="1593" y2="361.6"/>
		<line class="st3" x1="1843.5" y1="268.6" x2="1843.5" y2="361.6"/>
		<line class="st3" x1="1498.5" y1="361.6" x2="1498.5" y2="454.6"/>
		<line class="st3" x1="1708.5" y1="361.6" x2="1708.5" y2="454.6"/>
		<line class="st3" x1="1545" y1="454.6" x2="1545" y2="547.6"/>
		<line class="st3" x1="1774.5" y1="454.6" x2="1774.5" y2="547.6"/>
		<line class="st3" x1="1638" y1="547.6" x2="1638" y2="640.6"/>
		<line class="st3" x1="1821" y1="547.6" x2="1821" y2="640.6"/>
		<line class="st3" x1="1525.5" y1="640.6" x2="1525.5" y2="733.6"/>
		<line class="st3" x1="1749" y1="640.6" x2="1749" y2="733.6"/>
		<line class="st3" x1="1603.5" y1="733.6" x2="1603.5" y2="826.6"/>
		<line class="st3" x1="1791" y1="733.6" x2="1791" y2="826.6"/>
		<line class="st3" x1="1485" y1="826.6" x2="1485" y2="919.6"/>
		<line class="st3" x1="1720.5" y1="826.6" x2="1720.5" y2="919.6"/>
		<line class="st3" x1="1584" y1="919.6" x2="1584" y2="1003.6"/>
		<line class="st3" x1="1833" y1="919.6" x2="1833" y2="1003.6"/>
		<line class="st3" x1="1558.5" y1="1003.6" x2="1558.5" y2="1080"/>
		<line class="st3" x1="1762.5" y1="1003.6" x2="1762.5" y2="1080"/>
		<rect x="-0.1" y="354.3" class="st6" width="520.3" height="44.9"/>
		<path class="st7" d="M78.5,279.2v26.3c0,0-22,27-22.3,38.2c-0.1,3,5.4,10.6,5.4,10.6h53.1c0,0,7.4-7.6,7.2-10.4
			c-0.9-11-20.3-38.5-20.3-38.5l1.5-26.3L78.5,279.2z"/>
		<ellipse class="st8" cx="91.1" cy="279.2" rx="14.9" ry="6.1"/>
		<path class="st9" d="M61.1,334.2l7.6-2.4l9.3,3.1l8-3.1l10-1.3l7.3-0.5l7.3,4.9l4.8-3.9c0,0,5.1,9.7,4.7,13.3
			c-0.4,3.1-6,8.5-6,8.5H61.6c0,0-3.7-4.2-4.2-6c-0.5-1.6,0-5.1,0.5-6.8C58.5,338.5,61.1,334.2,61.1,334.2z"/>
		<polygon class="st10" points="1,376.8 518.5,375.7 518.3,397.8 1,398 		"/>
		<rect x="8.5" y="225.5" class="st11" width="75.3" height="37.2"/>
		<polygon class="st11" points="30.3,239.1 62.7,239.1 62.7,247.4 46.5,253.7 30.3,247.4 		"/>
		<rect x="19.7" y="361.8" class="st11" width="53.5" height="10.3"/>
		<rect x="39.6" y="246.4" class="st11" width="13.9" height="119.7"/>
		<rect x="439.3" y="225.5" class="st11" width="75.3" height="37.2"/>
		<polygon class="st11" points="461.1,239.1 493.6,239.1 493.6,247.4 477.4,253.7 461.1,247.4 		"/>
		<rect x="1399.5" y="729.4" class="st1" width="520.2" height="350.6"/>
		<rect x="450.6" y="361.8" class="st11" width="53.5" height="10.3"/>
		<rect x="470.4" y="246.4" class="st11" width="13.9" height="119.7"/>
		<path class="st12" d="M207.4,259.4v67.2c0,0,0.6,6.6,2,8.3c1.2,1.4,4.9,3.4,6.9,3.3c2.1-0.1,5.7-2.8,6.9-4.3c1.3-1.7,2-8,2-8
			v-66.5L207.4,259.4L207.4,259.4z"/>
		<path class="st13" d="M207.4,283.2c0,0,4-3.2,5.7-3c1.2,0.1,2.1,2.8,3.2,3c1.2,0.2,3.3-1.3,4.4-1.5c1.1-0.2,4.4,0,4.4,0v41.6
			c0,0-0.4,8.2-2,10.5c-1.1,1.6-4.8,4.2-6.9,4.3c-1.9,0.1-5.7-1.9-6.9-3.3c-1.4-1.7-2-8.3-2-8.3v-43.3L207.4,283.2L207.4,283.2z"/>
		<path class="st14" d="M216.3,284.1v53.5c0,0,4.9-2.5,6.1-4.1c1.3-1.7,1.9-7.2,1.9-7.2l-0.1-43.9c0,0-2.3-0.2-3.1-0.1
			C219.8,282.5,216.3,284.1,216.3,284.1z"/>
		<path class="st12" d="M230.7,259.4v67.2c0,0,0.6,6.6,2,8.3c1.2,1.4,4.9,3.4,6.9,3.3c2.1-0.1,5.7-2.8,6.9-4.3c1.3-1.7,2-8,2-8
			v-66.5L230.7,259.4L230.7,259.4z"/>
		<path class="st15" d="M230.7,283.2c0,0,4-3.2,5.7-3c1.2,0.1,2.1,2.8,3.2,3c1.2,0.2,3.3-1.3,4.4-1.5c1.1-0.2,4.4,0,4.4,0v41.6
			c0,0-0.4,8.2-2,10.5c-1.1,1.6-4.8,4.2-6.9,4.3c-1.9,0.1-5.7-1.9-6.9-3.3c-1.4-1.7-2-8.3-2-8.3v-43.3L230.7,283.2L230.7,283.2z"/>
		<path class="st16" d="M239.6,284.1v53.5c0,0,4.9-2.5,6.1-4.1c1.3-1.7,1.9-7.2,1.9-7.2l-0.1-43.9c0,0-2.3-0.2-3.1-0.1
			C243,282.5,239.6,284.1,239.6,284.1z"/>
		<path class="st12" d="M253.6,259.4v67.2c0,0,0.6,6.6,2,8.3c1.2,1.4,4.9,3.4,6.9,3.3c2.1-0.1,5.7-2.8,6.9-4.3c1.3-1.7,2-8,2-8
			v-66.5L253.6,259.4L253.6,259.4z"/>
		<path class="st17" d="M253.6,283.2c0,0,4-3.2,5.7-3c1.2,0.1,2.1,2.8,3.2,3c1.2,0.2,3.3-1.3,4.4-1.5s4.4,0,4.4,0v41.6
			c0,0-0.4,8.2-2,10.5c-1.1,1.6-4.8,4.2-6.9,4.3c-1.9,0.1-5.7-1.9-6.9-3.3c-1.4-1.7-2-8.3-2-8.3L253.6,283.2L253.6,283.2z"/>
		<path class="st18" d="M262.5,284.1v53.5c0,0,4.9-2.5,6.1-4.1c1.3-1.7,1.9-7.2,1.9-7.2l-0.1-43.9c0,0-2.3-0.2-3.1-0.1
			C266,282.5,262.5,284.1,262.5,284.1z"/>
		<path class="st12" d="M334.8,218.3c0,0-11.4,6.7-15,9.3c-4,2.9-11.9,8.9-15,12.7c-3.5,4.3-9.2,14-10.5,19.2
			c-1.3,4.8-0.8,14.9,0,19.8c0.7,4.3,3.3,12.8,5.7,16.5c3.8,5.9,14.2,16.4,20.6,20.1c5.1,2.9,17.1,5.7,23,6.5
			c2.5,0.3,7.6,0.3,10.1,0c3.7-0.4,11-2,14.6-3.2c5.8-1.9,17.4-6.4,22.2-9.9c3.5-2.6,9.2-9.2,11.3-12.8c2.4-4,5.3-12.8,6.1-17.3
			c0.7-4.1,0.7-12.4,0-16.5c-0.9-4.9-4-14.6-6.9-18.9c-2.8-4.2-10.7-11.1-15-14.1c-2.4-1.7-7.6-4.6-10.1-6.1
			c-2.3-1.4-9.3-5.3-9.3-5.3l-1.2-38h-30.3L334.8,218.3z"/>
		<ellipse class="st19" cx="326.4" cy="279.7" rx="4.3" ry="3.9"/>
		<path class="st19" d="M295.7,259.4c0,0,9-6.9,12.5-6.2c2.8,0.5,6.1,5.9,8.9,6.2c2.4,0.3,6.5-3.2,8.9-3.3c4.7-0.2,13.2,6,17.8,5.1
			c3.2-0.6,9-7,12.2-7.4c3.6-0.4,6.8,6.1,10.4,5.6c2.5-0.3,4.8-5.7,7.3-6.2c3.9-0.8,11.4,4.3,15.4,4c2.4-0.2,6.1-3.9,8.5-4
			c2.7-0.1,7.6,2.9,7.6,2.9s3.9,13.2,1.7,20.8c-1.3,4.4-4.2,12.2-6.5,16.2c-1.4,2.4-5.3,6.7-7.3,8.9c-0.9,1-3.4,2.1-4.4,3.1
			c-1.1,0.9-3,2.7-4.2,3.4c-3.3,1.8-9.3,3.9-12.9,5.1c-2.7,0.9-7.9,2.4-10.7,3.1c-1.8,0.4-3.2,0.9-5.1,1c-2.5,0.2-9.2,0.2-11.7-0.1
			c-3.1-0.4-3.7-0.4-6.7-1.3c-2.7-0.8-11.2-2.6-15.2-4.7c-3.7-2-10.4-7.3-13.3-10.2c-2.2-2.2-6.1-6.7-7.7-9.3
			c-1.5-2.4-3.5-7.2-4.2-9.9c-1-3.6-2.3-11.2-2.4-14.9C294.4,264.4,295.7,259.4,295.7,259.4z"/>
		<path class="st20" d="M294.9,262.1c0,0,10-6.4,13.6-5.7c2.8,0.5,6.1,5.9,8.9,6.2c2.4,0.3,6.5-3.2,8.9-3.3c4.7-0.2,13.2,6,17.8,5.1
			c3.2-0.6,9-7,12.2-7.4c3.6-0.4,6.8,6.1,10.4,5.6c2.5-0.3,4.8-5.7,7.3-6.2c3.9-0.8,11.4,4.3,15.4,4c2.4-0.2,6.1-3.9,8.5-4
			c2.7-0.1,7.6,2.9,7.6,2.9s3.9,13.2,1.7,20.8c-1.3,4.4-4.2,12.2-6.5,16.2c-1.4,2.4-5.3,6.7-7.3,8.9c-0.9,1-3.4,2.1-4.4,3.1
			c-1.1,0.9-3,2.7-4.2,3.4c-3.3,1.8-9.3,3.9-12.9,5.1c-2.7,0.9-7.9,2.4-10.7,3.1c-1.8,0.4-3.2,0.9-5.1,1c-2.5,0.2-9.2,0.2-11.7-0.1
			c-3.1-0.4-3.7-0.4-6.7-1.3c-2.7-0.8-11.2-2.6-15.2-4.7c-3.7-2-10.4-7.3-13.3-10.2c-2.2-2.2-6.1-6.7-7.7-9.3
			c-1.5-2.4-3.5-7.2-4.2-9.9c-1-3.6-2.3-11.2-2.4-14.9C294.6,267.7,294.9,262.1,294.9,262.1z"/>
		<ellipse class="st19" cx="390" cy="285" rx="2.2" ry="1.9"/>
		<ellipse class="st19" cx="349.1" cy="299.9" rx="2.8" ry="2.5"/>
		<ellipse class="st19" cx="367.4" cy="283.1" rx="4.3" ry="3.9"/>
		<ellipse class="st19" cx="372.3" cy="309.1" rx="2.8" ry="2.5"/>
		<ellipse class="st19" cx="345.9" cy="316.9" rx="2.2" ry="1.9"/>
		<ellipse class="st19" cx="360.8" cy="308.6" rx="2.2" ry="1.9"/>
		<ellipse class="st19" cx="331.7" cy="304.7" rx="2.2" ry="1.9"/>
		<path class="st21" d="M197.7,352.7v-40c0,0-3.1-0.2-3.6-0.9c-0.7-0.8-0.5-3.1,0-4s2.5-2.5,3.6-2.5c24.7-1.5,60.2,0.4,85.7,0
			c1.2,0,3.7,1.2,4,2.2c0.4,1.4-1.8,4.5-3.2,5.2c-0.8,0.4-3.6,0-3.6,0s-3.5,23.5,0.4,30.2c1.2,2.1,6,4.6,8.5,5.4
			c2.4,0.8,7.6,1.1,10.1,0.7c2.3-0.4,6.8-2.1,8.5-3.6c1.3-1.1,2.8-4.2,3.2-5.8c1.7-6.6,0-27,0-27s-4.7,0.6-6.1,0
			c-1.1-0.5-2.8-2.3-2.8-3.4c0-1.2,1.5-3.9,2.8-4c25.5-1.5,63.9,0.4,89.4,0c1.4,0,3.4,2.8,3.2,4c-0.1,1.2-2.8,3-4,3.4
			c-0.7,0.2-2.8,0-2.8,0l0.4,23.3l0.8,7.2v9.5h-4.4l-1.6-40h-69.9c0,0,0.5,12.2,0.4,16.3c-0.1,3.1,0.2,9.5-0.8,12.4
			c-0.6,1.9-2.9,5.4-4.4,6.9c-1.6,1.5-5.5,3.8-7.7,4.4c-2.6,0.7-8.2,0.4-10.9,0c-2.6-0.4-7.8-1.7-10.1-3c-2.1-1.1-6.1-4.1-6.9-6.1
			c-2.4-6.9-1.2-30.9-1.2-30.9h-71.2l-1.2,40L197.7,352.7L197.7,352.7z"/>
		<ellipse class="st19" cx="320.7" cy="275.8" rx="4.3" ry="3.9"/>
		<ellipse class="st19" cx="387.8" cy="291.7" rx="2.6" ry="2.3"/>
		<ellipse class="st19" cx="331.7" cy="291.4" rx="3" ry="2.7"/>
		<ellipse class="st22" cx="351" cy="179.1" rx="19.3" ry="6.7"/>
		<path class="st23" d="M375.1,353.9c0,2.3-9.7,4-21.7,4.2c-6.4,0.1-21.1-1.9-21.7-4.2c-0.6-2.3,9.7-4.2,21.7-4.2
			C365.4,349.6,375.1,351.5,375.1,353.9z"/>
		<polygon class="st24" points="341.7,342.7 336.6,345.6 336.6,353.9 369.6,353.9 369.6,346.3 365.5,343.2 		"/>
		<line class="st3" x1="353.1" y1="342.7" x2="353.1" y2="337.6"/>
		<g class="st25">
			<path class="st26" d="M349.7,325.4c0.9-0.2,1.6,0.5,1.8,1.1c0.5,2.1-0.6,4.3-2.9,6c-1.6,1.1-3.8,2.2-3.6,3.7
				c0.2,1.4,2.7,2.3,4.8,2.8c2.7,0.7,6,1.4,8.5,0.4c1.6-0.6,2.4-1.8,2.7-3c0.5-2.2-0.6-4.4-2.4-6.2s-4.5-3.4-7.4-4.7"/>
		</g>
		<g class="st25">
			<path class="st27" d="M351.1,327.9c0.6-0.2,1.1,0.4,1.2,0.9c0.3,1.7-0.4,3.4-2,4.7c-1.1,0.9-2.6,1.7-2.4,2.9
				c0.1,1.1,1.8,1.8,3.3,2.2c1.9,0.6,4.1,1.1,5.8,0.3c1.1-0.5,1.6-1.4,1.8-2.3c0.3-1.7-0.4-3.4-1.7-4.9s-3.1-2.7-5-3.7"/>
		</g>
		<g class="st25">
			<path class="st28" d="M352.3,329.9c0.5-0.2,0.9,0.3,1,0.7c0.2,1.3-0.3,2.7-1.6,3.6c-0.9,0.7-2.1,1.3-2,2.2
				c0.1,0.9,1.5,1.4,2.6,1.7c1.5,0.4,3.3,0.8,4.7,0.2c0.9-0.4,1.3-1.1,1.5-1.8c0.3-1.3-0.3-2.7-1.3-3.8c-1-1.1-2.5-2.1-4-2.9"/>
		</g>
		<polygon class="st29" points="336.6,345.6 342,348.3 345,345.6 349.7,346.9 355.8,345.6 358.9,346.9 363,346.9 367.4,348.3 
			369.6,346.3 365.5,343.2 341.7,342.7 		"/>
		<ellipse class="st12" cx="351.3" cy="179.1" rx="14.2" ry="4.6"/>
		<rect x="520.3" y="738" class="st1" width="879.2" height="342"/>
		<line class="st3" x1="613" y1="82.6" x2="613" y2="175.6"/>
		<line class="st3" x1="687.1" y1="0" x2="687.1" y2="82.6"/>
		<line class="st3" x1="518.5" y1="375.7" x2="613" y2="372.1"/>
		<line class="st3" x1="504.1" y1="399.2" x2="504.1" y2="454.6"/>
		<line class="st3" x1="1258.4" y1="0" x2="1258.4" y2="82.6"/>
		<line class="st3" x1="1341.8" y1="82.6" x2="1341.8" y2="175.6"/>
		<line class="st3" x1="1393.8" y1="372.1" x2="1310.2" y2="372.1"/>
	</g>
	<g id="Mesa">
		<polygon class="st6" points="453.3,881.1 454.5,978.2 414.6,978.2 408.2,965.8 405.1,881.1 		"/>
		<polygon class="st4" points="414.6,978.2 414.6,881.1 405.1,881.1 406.1,965.8 		"/>
		<polygon class="st6" points="67.2,856.2 67.1,974 108.1,974 119.5,962.7 119.5,856.2 		"/>
		<polygon class="st4" points="108.1,974 107.3,856.2 119.5,856.2 119.5,962.7 		"/>
		<rect y="640.6" class="st30" width="518.5" height="272.4"/>
		<rect y="885" class="st31" width="518.5" height="69.8"/>
		<polygon class="st6" points="0,954.8 -0.1,1080 57.3,1080 73.3,1068 73.3,954.8 		"/>
		<polygon class="st4" points="57.3,1080 56.2,954.8 73.3,954.8 73.3,1068 		"/>
		<polygon class="st6" points="515.5,956 517.2,1081.2 461,1081.2 452,1065.2 447.6,956 		"/>
		<polygon class="st4" points="461,1081.2 461,956 447.6,956 449,1065.2 		"/>
	</g>
	<g id="Layer_3">
		<rect x="1395.4" y="109.7" class="st4" width="523.2" height="709.4"/>
		<rect x="1440.7" y="159.6" class="st32" width="432.1" height="613.4"/>
		<rect x="1440.7" y="250.8" class="st6" width="432.1" height="50.2"/>
		<polygon class="st10" points="1440.7,278.2 1872.9,277.2 1872.7,299.2 1440.7,299.5 		"/>
		<rect x="1439.4" y="441.1" class="st6" width="432.1" height="50.2"/>
		<polygon class="st10" points="1439.4,468.6 1871.6,467.6 1871.4,489.6 1439.4,489.8 		"/>
		<rect x="1439.4" y="616.4" class="st6" width="432.1" height="50.2"/>
		<polygon class="st10" points="1439.4,643.9 1871.6,642.9 1871.4,664.9 1439.4,665.1 		"/>
		<polyline class="st33" points="1595.1,440.7 1871.6,441.1 1872.9,335 		"/>
		<polygon class="st34" points="1850.3,335 1849.3,440.7 1871.6,441.1 1872.9,335 		"/>
		<polygon class="st34" points="1781.6,431.8 1834.7,335 1850.3,343.7 1800,440.7 		"/>
		<polygon class="st34" points="1769.3,335 1768,440.7 1747.3,440.7 1750,335 		"/>
		<polygon class="st34" points="1713.1,335 1710.8,441.1 1745.1,440.7 1745.1,335 		"/>
		<polygon class="st34" points="1639.7,335 1639.7,441.1 1662,441.3 1662,335 		"/>
		<rect x="1680.8" y="335" class="st34" width="25.8" height="105.7"/>
		<polygon class="st35" points="1745.1,347.5 1712.8,347.5 1713.1,335 1745.1,335 		"/>
		<polygon class="st36" points="1711.2,423.2 1745.1,423.2 1745.1,440.7 1710.8,441.1 		"/>
		<g class="st25">
			<path class="st37" d="M1841.1,360.9c-5.3-3.1-10.3-6.6-15-10.4l8.6-15.4l15.7,8.7L1841.1,360.9z"/>
			<g>
				<path d="M1841.8,359.6c-5.1-3.1-10-6.4-14.7-10.2c0.1,0.6,0.2,1.2,0.2,1.8c2.9-5.1,5.7-10.3,8.6-15.4c-0.7,0.2-1.4,0.4-2.1,0.5
					c5.2,2.9,10.4,5.8,15.7,8.7c-0.2-0.7-0.4-1.4-0.5-2.1c-3.1,5.7-6.2,11.5-9.3,17.2c-0.9,1.7,1.7,3.2,2.6,1.5
					c3.1-5.7,6.2-11.5,9.3-17.2c0.4-0.7,0.2-1.6-0.5-2.1c-5.2-2.9-10.4-5.8-15.7-8.7c-0.7-0.4-1.7-0.2-2.1,0.5
					c-2.9,5.1-5.7,10.3-8.6,15.4c-0.3,0.5-0.3,1.4,0.2,1.8c4.9,3.9,9.9,7.5,15.3,10.7C1842,363.2,1843.5,360.6,1841.8,359.6z"/>
			</g>
		</g>
		<g class="st25">
			<path class="st37" d="M1808,425.5c-5.2-2.8-10.4-5.5-15.6-8.3c-0.7-0.4-1.4-0.7-2.1-0.5l-8.7,15l18.4,8.9L1808,425.5z"/>
			<g>
				<path d="M1808.8,424.2c-3.8-2-7.5-4-11.3-6c-2.3-1.2-4.5-3-7.2-3c-0.5,0-1,0.3-1.3,0.7c-2.9,5-5.8,10-8.7,15
					c-0.4,0.7-0.2,1.7,0.5,2.1c6.1,3,12.3,6,18.4,8.9c0.7,0.3,1.7,0.2,2.1-0.5c2.7-5.1,5.3-10.1,8-15.2c0.9-1.7-1.7-3.2-2.6-1.5
					c-2.7,5.1-5.3,10.1-8,15.2c0.7-0.2,1.4-0.4,2.1-0.5c-6.1-3-12.3-6-18.4-8.9c0.2,0.7,0.4,1.4,0.5,2.1c2.1-3.7,4.3-7.4,6.4-11.1
					c0.5-0.8,0.9-1.8,1.5-2.5c0.1-0.1,0.4-0.9,0.6-1c0.8-0.5-0.8,0.1,0.2,0.2c-0.1,0,2.9,2,3.5,2.3c1.2,0.6,2.3,1.2,3.5,1.8
					c2.9,1.5,5.8,3.1,8.7,4.6C1808.9,427.7,1810.5,425.1,1808.8,424.2z"/>
			</g>
		</g>
		<g class="st25">
			<path class="st37" d="M1706.7,347.7c-9,0.2-17.1,0.2-25.7,0.9l-0.2-13.6h25.8L1706.7,347.7L1706.7,347.7z"/>
			<g>
				<path d="M1706.7,346.2c-8.6,0.2-17.1,0.3-25.7,0.9c0.5,0.5,1,1,1.5,1.5c-0.1-4.5-0.1-9.1-0.2-13.6c-0.5,0.5-1,1-1.5,1.5
					c8.6,0,17.2,0,25.8,0c-0.5-0.5-1-1-1.5-1.5c0,4.2,0,8.5,0,12.7c0,1.9,3,1.9,3,0c0-4.2,0-8.5,0-12.7c0-0.8-0.7-1.5-1.5-1.5
					c-8.6,0-17.2,0-25.8,0c-0.8,0-1.5,0.7-1.5,1.5c0.1,4.5,0.1,9.1,0.2,13.6c0,0.8,0.7,1.6,1.5,1.5c8.5-0.6,17.1-0.8,25.7-0.9
					C1708.6,349.2,1708.6,346.2,1706.7,346.2z"/>
			</g>
		</g>
		<g class="st25">
			<path class="st37" d="M1706.7,423.8c-7.9-0.1-17.3,0-25.2,0.4l-0.7,16.6h25.8L1706.7,423.8L1706.7,423.8z"/>
			<g>
				<path d="M1706.7,422.3c-8.4-0.1-16.8,0-25.2,0.4c-0.8,0-1.5,0.7-1.5,1.5c-0.2,5.5-0.4,11-0.7,16.6c0,0.8,0.7,1.5,1.5,1.5
					c8.6,0,17.2,0,25.8,0c0.8,0,1.5-0.7,1.5-1.5c0-5.6,0-11.3,0-16.9c0-1.9-3-1.9-3,0c0,5.6,0,11.3,0,16.9c0.5-0.5,1-1,1.5-1.5
					c-8.6,0-17.2,0-25.8,0c0.5,0.5,1,1,1.5,1.5c0.2-5.5,0.4-11,0.7-16.6c-0.5,0.5-1,1-1.5,1.5c8.4-0.4,16.8-0.5,25.2-0.4
					C1708.6,425.3,1708.6,422.3,1706.7,422.3z"/>
			</g>
		</g>
		<g class="st25">
			<path class="st37" d="M1661,348.9c-7.1-0.4-14.2-0.8-21.2-1.2l-0.1-12.7h22.3L1661,348.9z"/>
			<g>
				<path d="M1661,347.4c-7.1-0.4-14.2-0.8-21.2-1.2c0.5,0.5,1,1,1.5,1.5c0-4.2-0.1-8.5-0.1-12.7c-0.5,0.5-1,1-1.5,1.5
					c7.4,0,14.9,0,22.3,0c-0.5-0.5-1-1-1.5-1.5c-0.3,4.6-0.7,9.3-1,13.9c-0.1,1.9,2.9,1.9,3,0c0.3-4.6,0.7-9.3,1-13.9
					c0.1-0.8-0.7-1.5-1.5-1.5c-7.4,0-14.9,0-22.3,0c-0.8,0-1.5,0.7-1.5,1.5c0,4.2,0.1,8.5,0.1,12.7c0,0.8,0.7,1.5,1.5,1.5
					c7.1,0.4,14.2,0.8,21.2,1.2C1662.9,350.5,1662.9,347.5,1661,347.4z"/>
			</g>
		</g>
		<g class="st25">
			<path class="st37" d="M1661.7,423.8c-7.3-0.1-14.5-0.1-21.8,0.1l-0.3,17.3l22.3,0.2L1661.7,423.8z"/>
			<g>
				<path d="M1661.7,422.3c-7.3-0.1-14.5-0.1-21.8,0.1c-0.8,0-1.5,0.7-1.5,1.5c-0.1,5.8-0.2,11.5-0.3,17.3c0,0.8,0.7,1.5,1.5,1.5
					c7.4,0.1,14.9,0.1,22.3,0.2c0.8,0,1.5-0.7,1.5-1.5c-0.1-5.9-0.2-11.7-0.3-17.6c0-1.9-3-1.9-3,0c0.1,5.9,0.2,11.7,0.3,17.6
					c0.5-0.5,1-1,1.5-1.5c-7.4-0.1-14.9-0.1-22.3-0.2c0.5,0.5,1,1,1.5,1.5c0.1-5.8,0.2-11.5,0.3-17.3c-0.5,0.5-1,1-1.5,1.5
					c7.3-0.1,14.5-0.1,21.8-0.1C1663.7,425.3,1663.7,422.3,1661.7,422.3z"/>
			</g>
		</g>
		<g class="st25">
			<path class="st37" d="M1768.5,347.7c-6-0.3-11.9,0.8-17.8-0.4L1750,335h19.3L1768.5,347.7z"/>
			<g>
				<path d="M1768.5,346.2c-5.8-0.2-11.6,0.6-17.4-0.3c0.4,0.5,0.7,1,1.1,1.4c-0.2-4.1-0.5-8.2-0.7-12.3c-0.5,0.5-1,1-1.5,1.5
					c6.4,0,12.9,0,19.3,0c-0.5-0.5-1-1-1.5-1.5c-0.3,4.2-0.6,8.5-0.8,12.7c-0.1,1.9,2.9,1.9,3,0c0.3-4.2,0.6-8.5,0.8-12.7
					c0.1-0.8-0.7-1.5-1.5-1.5c-6.4,0-12.9,0-19.3,0c-0.8,0-1.5,0.7-1.5,1.5c0.2,4.1,0.5,8.2,0.7,12.3c0,0.6,0.4,1.3,1.1,1.4
					c6,1,12.1,0.2,18.2,0.4C1770.4,349.3,1770.4,346.3,1768.5,346.2z"/>
			</g>
		</g>
		<g class="st25">
			<path class="st37" d="M1768.2,424c-5.8,0-14.7,0-20.5,0l-0.4,15.3h20.7L1768.2,424z"/>
			<g>
				<path d="M1768.2,422.5c-6.8,0-13.6,0-20.5,0c-0.8,0-1.5,0.7-1.5,1.5c-0.1,5.1-0.3,10.2-0.4,15.3c0,0.8,0.7,1.5,1.5,1.5
					c6.9,0,13.8,0,20.7,0c0.8,0,1.5-0.7,1.5-1.5c0.1-5.1,0.1-10.2,0.2-15.3c0-1.9-3-1.9-3,0c-0.1,5.1-0.1,10.2-0.2,15.3
					c0.5-0.5,1-1,1.5-1.5c-6.9,0-13.8,0-20.7,0c0.5,0.5,1,1,1.5,1.5c0.1-5.1,0.3-10.2,0.4-15.3c-0.5,0.5-1,1-1.5,1.5
					c6.8,0,13.6,0,20.5,0C1770.1,425.5,1770.1,422.5,1768.2,422.5z"/>
			</g>
		</g>
		<g class="st25">
			<path class="st37" d="M1851.3,345.3c6.8,1.1,13.6,1.6,20.5,1.5l1.1-11.8h-22.6L1851.3,345.3z"/>
			<g>
				<path d="M1850.9,346.8c6.9,1.1,13.9,1.6,20.9,1.5c0.9,0,1.4-0.7,1.5-1.5c0.4-3.9,0.8-7.9,1.1-11.8c0.1-0.8-0.8-1.5-1.5-1.5
					c-7.5,0-15,0-22.6,0c-0.8,0-1.6,0.7-1.5,1.5c0.3,3.4,0.6,6.9,0.9,10.3c0.2,1.9,3.2,1.9,3,0c-0.3-3.4-0.6-6.9-0.9-10.3
					c-0.5,0.5-1,1-1.5,1.5c7.5,0,15,0,22.6,0c-0.5-0.5-1-1-1.5-1.5c-0.4,3.9-0.8,7.9-1.1,11.8c0.5-0.5,1-1,1.5-1.5
					c-6.7,0.1-13.4-0.4-20.1-1.4C1849.8,343.6,1849,346.5,1850.9,346.8z"/>
			</g>
		</g>
		<g class="st25">
			<path class="st37" d="M1871.6,422.2c-5.9-0.3-16.2,0-22.1,0.6l-0.2,17.9l22.3,0.5L1871.6,422.2L1871.6,422.2z"/>
			<g>
				<path d="M1871.6,420.7c-7.4-0.3-14.8-0.1-22.1,0.6c-0.8,0.1-1.5,0.6-1.5,1.5c-0.1,6-0.1,11.9-0.2,17.9c0,0.8,0.7,1.5,1.5,1.5
					c7.4,0.2,14.9,0.3,22.3,0.5c0.8,0,1.5-0.7,1.5-1.5c0-6.3,0-12.6,0-18.9c0-1.9-3-1.9-3,0c0,6.3,0,12.6,0,18.9
					c0.5-0.5,1-1,1.5-1.5c-7.4-0.2-14.9-0.3-22.3-0.5c0.5,0.5,1,1,1.5,1.5c0.1-6,0.1-11.9,0.2-17.9c-0.5,0.5-1,1-1.5,1.5
					c7.3-0.6,14.8-0.8,22.1-0.6C1873.5,423.8,1873.5,420.8,1871.6,420.7z"/>
			</g>
		</g>
		<polygon class="st34" points="1849.2,511.7 1847.9,617.4 1827.2,617.4 1829.9,511.7 		"/>
		<g class="st25">
			<path class="st37" d="M1848.4,524.4c-6-0.3-11.9,0.8-17.8-0.4l-0.7-12.3h19.3L1848.4,524.4z"/>
			<g>
				<path d="M1848.4,522.9c-5.8-0.2-11.6,0.6-17.4-0.3c0.4,0.5,0.7,1,1.1,1.4c-0.2-4.1-0.5-8.2-0.7-12.3c-0.5,0.5-1,1-1.5,1.5
					c6.4,0,12.9,0,19.3,0c-0.5-0.5-1-1-1.5-1.5c-0.3,4.2-0.6,8.5-0.8,12.7c-0.1,1.9,2.9,1.9,3,0c0.3-4.2,0.6-8.5,0.8-12.7
					c0.1-0.8-0.7-1.5-1.5-1.5c-6.4,0-12.9,0-19.3,0c-0.8,0-1.5,0.7-1.5,1.5c0.2,4.1,0.5,8.2,0.7,12.3c0,0.6,0.4,1.3,1.1,1.4
					c6,1,12.1,0.2,18.2,0.4C1850.3,526,1850.3,523,1848.4,522.9z"/>
			</g>
		</g>
		<g class="st25">
			<path class="st37" d="M1848.1,600.7c-5.8,0-14.7,0-20.5,0l-0.4,15.3h20.7L1848.1,600.7z"/>
			<g>
				<path d="M1848.1,599.2c-6.8,0-13.6,0-20.5,0c-0.8,0-1.5,0.7-1.5,1.5c-0.1,5.1-0.3,10.2-0.4,15.3c0,0.8,0.7,1.5,1.5,1.5
					c6.9,0,13.8,0,20.7,0c0.8,0,1.5-0.7,1.5-1.5c0.1-5.1,0.1-10.2,0.2-15.3c0-1.9-3-1.9-3,0c-0.1,5.1-0.1,10.2-0.2,15.3
					c0.5-0.5,1-1,1.5-1.5c-6.9,0-13.8,0-20.7,0c0.5,0.5,1,1,1.5,1.5c0.1-5.1,0.3-10.2,0.4-15.3c-0.5,0.5-1,1-1.5,1.5
					c6.8,0,13.6,0,20.5,0C1850,602.2,1850,599.2,1848.1,599.2z"/>
			</g>
		</g>
		<polygon class="st34" points="1822.1,616.7 1716.4,614.8 1716.6,594.1 1822.2,597.4 		"/>
		<g class="st25">
			<path class="st37" d="M1809.4,615.8c0.3-6-0.7-11.9,0.5-17.8l12.3-0.7l-0.1,19.3L1809.4,615.8z"/>
			<g>
				<path d="M1810.9,615.8c0.2-5.8-0.6-11.6,0.4-17.4c-0.5,0.4-1,0.7-1.4,1.1c4.1-0.2,8.2-0.4,12.3-0.7c-0.5-0.5-1-1-1.5-1.5
					c0,6.4-0.1,12.9-0.1,19.3c0.5-0.5,1-1,1.5-1.5c-4.2-0.3-8.5-0.6-12.7-0.9c-1.9-0.1-1.9,2.9,0,3c4.2,0.3,8.5,0.6,12.7,0.9
					c0.8,0.1,1.5-0.7,1.5-1.5c0-6.4,0.1-12.9,0.1-19.3c0-0.8-0.7-1.5-1.5-1.5c-4.1,0.2-8.2,0.4-12.3,0.7c-0.6,0-1.3,0.4-1.4,1.1
					c-1,6-0.3,12.1-0.5,18.2C1807.8,617.7,1810.8,617.7,1810.9,615.8z"/>
			</g>
		</g>
		<g class="st25">
			<path class="st37" d="M1733.1,615.1c0-5.7,0.1-14.7,0.1-20.5l-15.3-0.5l-0.1,20.7L1733.1,615.1z"/>
			<g>
				<path d="M1734.6,615.1c0-6.8,0.1-13.6,0.1-20.5c0-0.8-0.7-1.5-1.5-1.5c-5.1-0.2-10.2-0.3-15.3-0.5c-0.8,0-1.5,0.7-1.5,1.5
					c0,6.9-0.1,13.8-0.1,20.7c0,0.8,0.7,1.5,1.5,1.5c5.1,0.1,10.2,0.2,15.3,0.3c1.9,0,1.9-3,0-3c-5.1-0.1-10.2-0.2-15.3-0.3
					c0.5,0.5,1,1,1.5,1.5c0-6.9,0.1-13.8,0.1-20.7c-0.5,0.5-1,1-1.5,1.5c5.1,0.2,10.2,0.3,15.3,0.5c-0.5-0.5-1-1-1.5-1.5
					c0,6.8-0.1,13.6-0.1,20.5C1731.6,617,1734.6,617,1734.6,615.1z"/>
			</g>
		</g>
		<polygon class="st34" points="1806,594.5 1697.9,594.8 1697.4,569.3 1805.6,570.6 		"/>
		<g class="st25">
			<path class="st37" d="M1793,593.7c0.2-7.4-1.1-14.7,0-21.9l12.6-1.1l0.4,23.9L1793,593.7z"/>
			<g>
				<path d="M1794.5,593.7c0.1-7.3-0.9-14.6,0-21.9c-0.5,0.5-1,1-1.5,1.5c4.2-0.4,8.4-0.8,12.6-1.1c-0.5-0.5-1-1-1.5-1.5
					c0.1,8,0.3,15.9,0.4,23.9c0.5-0.5,1-1,1.5-1.5c-4.3-0.3-8.7-0.5-13-0.8c-1.9-0.1-1.9,2.9,0,3c4.3,0.3,8.7,0.5,13,0.8
					c0.8,0,1.5-0.7,1.5-1.5c-0.1-8-0.3-15.9-0.4-23.9c0-0.8-0.7-1.6-1.5-1.5c-4.2,0.4-8.4,0.8-12.6,1.1c-0.9,0.1-1.4,0.6-1.5,1.5
					c-0.9,7.3,0.1,14.6,0,21.9C1791.5,595.6,1794.5,595.6,1794.5,593.7z"/>
			</g>
		</g>
		<g class="st25">
			<path class="st37" d="M1715,594.7c-0.1-7.1-0.3-18.2-0.5-25.3l-15.7-0.2l0.5,25.5H1715z"/>
			<g>
				<path d="M1716.5,594.7c-0.2-8.4-0.3-16.8-0.5-25.3c0-0.8-0.7-1.5-1.5-1.5c-5.2-0.1-10.5-0.2-15.7-0.2c-0.8,0-1.5,0.7-1.5,1.5
					c0.2,8.5,0.3,17,0.5,25.5c0,0.8,0.7,1.5,1.5,1.5c5.2,0,10.5,0,15.7,0c1.9,0,1.9-3,0-3c-5.2,0-10.5,0-15.7,0c0.5,0.5,1,1,1.5,1.5
					c-0.2-8.5-0.3-17-0.5-25.5c-0.5,0.5-1,1-1.5,1.5c5.2,0.1,10.5,0.2,15.7,0.2c-0.5-0.5-1-1-1.5-1.5c0.2,8.4,0.3,16.8,0.5,25.3
					C1713.5,596.7,1716.5,596.7,1716.5,594.7z"/>
			</g>
		</g>
		<polygon class="st34" points="1814.9,569.1 1709.2,569.4 1708.9,548.8 1814.6,549.8 		"/>
		<g class="st25">
			<path class="st37" d="M1802.2,568.5c0.2-6-1-11.9,0.1-17.8l12.3-0.9l0.3,19.3L1802.2,568.5z"/>
			<g>
				<path d="M1803.7,568.5c0.1-5.8-0.8-11.6,0-17.4c-0.5,0.4-1,0.7-1.4,1.1c4.1-0.3,8.2-0.6,12.3-0.9c-0.5-0.5-1-1-1.5-1.5
					c0.1,6.4,0.2,12.9,0.3,19.3c0.5-0.5,1-1,1.5-1.5c-4.2-0.2-8.5-0.4-12.7-0.6c-1.9-0.1-1.9,2.9,0,3c4.2,0.2,8.5,0.4,12.7,0.6
					c0.8,0,1.5-0.7,1.5-1.5c-0.1-6.4-0.2-12.9-0.3-19.3c0-0.8-0.7-1.6-1.5-1.5c-4.1,0.3-8.2,0.6-12.3,0.9c-0.6,0-1.3,0.4-1.4,1.1
					c-0.9,6.1,0,12.1-0.2,18.2C1800.7,570.4,1803.7,570.4,1803.7,568.5z"/>
			</g>
		</g>
		<g class="st25">
			<path class="st37" d="M1725.9,569.4c-0.1-5.7-0.2-14.7-0.3-20.5l-15.3-0.2l0.3,20.7H1725.9z"/>
			<g>
				<path d="M1727.4,569.4c-0.1-6.8-0.2-13.6-0.3-20.5c0-0.8-0.7-1.5-1.5-1.5c-5.1-0.1-10.2-0.1-15.3-0.2c-0.8,0-1.5,0.7-1.5,1.5
					c0.1,6.9,0.2,13.8,0.3,20.7c0,0.8,0.7,1.5,1.5,1.5c5.1,0,10.2,0,15.3-0.1c1.9,0,1.9-3,0-3c-5.1,0-10.2,0-15.3,0.1
					c0.5,0.5,1,1,1.5,1.5c-0.1-6.9-0.2-13.8-0.3-20.7c-0.5,0.5-1,1-1.5,1.5c5.1,0.1,10.2,0.1,15.3,0.2c-0.5-0.5-1-1-1.5-1.5
					c0.1,6.8,0.2,13.6,0.3,20.5C1724.4,571.3,1727.4,571.3,1727.4,569.4z"/>
			</g>
		</g>
	</g>
	<g id="Layer_5">
		<g class="st25">
			<path class="st38" d="M1734.7,946.6c4.9,5.6,9.8,13.9,13.9,19.9c3.2,4.7,6.3,9.9,5.6,15.2c-0.5,4.4-3.5,8.4-5.6,12.5
				s-3.3,9-0.4,12.8c1.2,1.6,3,2.8,4.6,4.2c5.3,4.7,7.6,11.5,6,17.7c-1.7,6.5-7.2,11.9-9.6,18.2c-0.2,0.6-0.4,1.3-0.1,1.8
				c0.3,0.6,1.1,1,1.8,1.3c6.4,2.8,11.9,7,15.7,12.1c0.5,0.6,1,1.3,1.8,1.6c0.6,0.3,1.4,0.3,2.1,0.3c3.3,0.1,6.7,0.1,10,0.2
				c0.6,0,1.3,0,1.9-0.2c0.8-0.3,1.3-0.9,1.8-1.4c2.9-3.8,4.5-8.4,8.4-11.6c1.3-1.1,2.9-2,3.8-3.3c0.9-1.4,1-3.1,0.8-4.7
				c-0.4-3.6-1.6-7.2-3.7-10.4c-2.3-3.6-5.5-6.8-6.8-10.7c-4.2-12.3,11.9-11.7,11-25.6c-0.3-3.9-7.5-18.6-7.3-22.6
				c0.2-3.7,3.4-6.7,6-9.7c4-4.7,6.9-10.1,8.3-15.7c0.1-0.4,0.2-0.9-0.1-1.2c-0.4-0.6-1.3-0.7-2.2-0.7
				C1779.9,946.5,1757.3,945.2,1734.7,946.6"/>
			<g>
				<path d="M1733.6,947.7c4.8,5.7,8.7,12.1,12.8,18.4c2.1,3.1,4.4,6.2,5.5,9.8c1.8,5.5-0.3,9.8-3,14.6c-2.5,4.5-5.3,9.8-3.3,15
					c1,2.5,2.8,4.1,4.9,5.8c3.2,2.8,5.8,5.8,6.8,10c2,8.4-4.1,14.7-7.8,21.5c-1.9,3.6-3.4,6.4,0.6,8.7c3.2,1.8,6.4,3.2,9.3,5.6
					c2.6,2.1,4.4,5.1,6.9,7.2c1.3,1.1,2.5,1.3,4.2,1.5c3.4,0.3,7.7,0.7,11,0.2c4.9-0.8,6.5-6.8,9.1-10.4c3.4-4.7,8.5-5.9,8-12.5
					c-0.5-6.7-4.4-11.5-8-16.9c-3.6-5.3-4.1-9.8,0.5-14.3c5.3-5.2,9.8-10.4,7.4-18.3c-1.4-4.6-3.5-9-5.1-13.6
					c-0.6-1.6-1.5-3.7-1.5-5.5c0-4.2,4.2-7.4,6.7-10.5c2.1-2.7,3.9-5.6,5.4-8.7c0.9-2.1,2.7-5.3,2.4-7.6c-0.2-1.4-1-2-2.3-2.4
					c-3.5-1.1-8.5-0.2-12.1-0.3c-19.1-0.3-38.1-1-57.1,0.1c-1.9,0.1-1.9,3.1,0,3c15.5-0.9,31-0.7,46.5-0.3c3.6,0.1,7.1,0.2,10.7,0.2
					c1.6,0,3.2,0.1,4.8,0.1c0.9,0,5.2-0.5,5.8,0.1c0.3,0,0.5,0,0.8,0c-0.3,1-0.6,2-0.9,3c-0.7,1.9-1.5,3.7-2.5,5.5
					c-1.8,3.2-4.1,6-6.5,8.8c-2.5,2.9-4.8,6-4.3,10s2.6,8.1,4,11.8c1.3,3.3,3.2,6.9,3.2,10.5c0,4.9-3,8-6.3,11.1
					c-5.8,5.5-6.9,11.1-2.4,18.1c3.3,5.2,9.1,11,8.2,17.8c-0.5,3.5-4.4,5.2-6.5,7.7c-1.8,2.1-2.8,4.7-4.5,6.9
					c-3.1,4.2-6.2,3.5-10.8,3.4c-3.8-0.1-5.6-1.1-8-3.9c-1.8-2-3.8-3.7-5.9-5.3c-1.8-1.3-8.9-4-9.3-6.1c-0.3-2,3.4-6.4,4.5-8
					c1.5-2.4,3-4.7,4.1-7.3c1.9-4.6,2.1-9.5,0.2-14.2c-2.8-6.9-13-11-11.1-19.1c1.6-6.6,7.5-11.6,7.4-18.8c0-6.4-4.2-11.8-7.6-16.9
					c-4-6-7.8-12.1-12.5-17.7C1734.5,944.1,1732.4,946.2,1733.6,947.7L1733.6,947.7z"/>
			</g>
		</g>
		<path class="st39" d="M1656,825.1c0,0-7.4,19.1-9.1,25.6c-1.4,5.2-3.2,15.7-3.6,21c-0.3,3.7-0.8,11.2,0,14.9
			c1.1,5.3,5.3,15.7,8.8,20.2c3.9,5.1,15,13.1,20.5,17.1c5.2,3.7,16,10.8,22,13.4c11.2,4.8,35.5,11.5,48,13.2
			c16.7,2.2,51,2.3,67.7,0c15.7-2.1,46.8-9.8,60.1-16.8c8.2-4.4,21.3-16.7,26.6-23.4c3.7-4.7,8.7-15.3,10.3-20.7
			c1.3-4.6,1.7-14.1,1.5-18.8c-0.2-3.9-1.8-11.7-2.7-15.6c-1.2-4.7-3.7-14.1-6-18.5c-1.6-3.1-8.5-11.5-8.5-11.5H1656V825.1z"/>
		<g class="st25">
			<path class="st38" d="M1879.2,924.9c4.3,2.5,8.1,5.7,11,9.4c0.9,1.1,1.8,2.4,1.7,3.7c-0.1,2.6-3.3,4.3-6,5.7
				c-8.7,4.4-16.1,10.3-21.7,17.3c-2.1,2.6-3.9,5.4-4.8,8.4c-0.7,2.3-0.9,4.7-0.5,7.1c0.3,1.6,0.8,3.1,1.4,4.6
				c0.8,2.2,1.6,4.3,2.3,6.5c0.5,1.5,1.4,3.2,3.2,3.6c0.7,0.1,1.4,0.1,2.1,0c3.8-0.4,7.7-0.8,11.5-1.2c1.9-0.2,4.2-0.8,4.4-2.3
				c0.1-0.7-0.5-1.4-1.1-2c-2-1.7-4.9-2.5-7.4-3.7s-4.9-3.3-4.5-5.6c0.2-1.3,1.3-2.4,2.3-3.4c5.7-5.7,12-11,18.7-15.9
				c4.6-3.4,9.5-6.6,13.1-10.7c3.6-4.1,5.9-9.3,4.5-14.2c-0.9-3.1-3.2-5.8-5.4-8.4c-4-4.7-8.3-9.7-14.8-12c-0.6-0.2-1.2-0.4-1.9-0.3
				c-0.7,0.2-1.1,0.7-1.5,1.1c-3.3,4.2-5.9,8.8-7.7,13.6"/>
			<g>
				<path d="M1878.4,926.2c3.3,2,9.9,6,11.3,10c1.7,4.9-8.9,8.4-12,10.4c-6.8,4.5-13.5,10.4-17.7,17.6c-4.7,7.9-2.2,14.9,0.8,22.8
					c0.9,2.3,1.9,4.8,4.6,5.5c3.8,1,9.3-0.6,13.1-1c3.7-0.4,9.6-2.6,5.2-6.9c-1.1-1.1-2.7-1.7-4-2.3c-0.9-0.4-1.7-0.7-2.6-1.1
					c-2.6-1.2-2.3-0.7-2.7-4.1c-0.4-3.4-0.5-2.8,1.5-4.8c0.8-0.8,1.7-1.6,2.5-2.4c1.9-1.8,3.9-3.5,5.9-5.2c10.2-8.5,35.2-21,24-37.6
					c-4.3-6.4-10.7-13.7-18.2-16.4c-2.6-1-3.9-0.7-5.8,1.3c-3.6,3.8-6,9.2-7.8,14c-0.7,1.8,2.2,2.6,2.9,0.8
					c1.4-3.7,3.2-8.2,5.9-11.1c2.5-2.7,4.1-2.3,7.1-0.5c1.8,1.1,3.4,2.4,4.9,3.9c6.2,5.9,13.9,13.9,8.9,22.8
					c-4,7.2-12.1,11.5-18.4,16.4c-5.8,4.4-12.4,9.3-17,15c-2.8,3.4-1.8,6.8,1.7,9.3c1.4,1,7.6,2.7,8.1,4c1.1,3-4.5,2.6-6.2,2.7
					c-2.1,0.2-4.7,0.9-6.7,0.7c-4.3-0.5-5.3-6.2-6.5-9.7c-1.8-5.3-1.4-10,1.7-14.8c4.3-6.8,10.9-12.5,17.6-16.7
					c3.7-2.4,12.8-4.9,12.7-10.5c-0.1-5.9-9-11.5-13.4-14.2C1878.3,922.6,1876.8,925.2,1878.4,926.2L1878.4,926.2z"/>
			</g>
		</g>
		<g class="st25">
			<path class="st38" d="M1671.3,921.5c-4.3,2.6-8.8,6-8.7,10.4c0.1,3.4,3,6.2,5.1,9.1c2.8,3.8,4.5,8.1,7,12
				c2.7,4.2,6.3,8,10.6,11.1c1,0.8,2.1,1.5,2.8,2.5c0.8,1,1,2.3,1.3,3.5c0.7,3.3,1.4,6.7,0.3,10c-0.8,2.5-2.7,4.8-2.7,7.4
				c0,0.5,0,1-0.4,1.3c-0.4,0.2-0.9,0.2-1.4,0.1c-5.8-1.1-11.5-2.8-16.8-5c-0.2-0.1-0.4-0.2-0.4-0.3c-0.1-0.2,0.1-0.4,0.2-0.5
				c1.4-1.3,3.7-1.7,5.1-2.9c1.5-1.2,1.8-3.2,1.4-4.9c-0.5-1.7-1.6-3.2-2.9-4.6c-9.3-11-22.1-20.6-26.4-33.5
				c-0.8-2.5-1.3-5.1-0.4-7.5c0.7-2,2.3-3.7,4-5.3c3.8-3.8,7.9-7.4,12.1-10.9c0.3-0.3,0.7-0.5,1.1-0.6c0.5,0,0.9,0.2,1.3,0.5
				c3.3,2.2,6,5,8.1,8"/>
			<g>
				<path d="M1670.6,920.3c-4.9,3.1-11,7.6-8.9,14.2c1.2,3.6,4.3,6.4,6.3,9.6c2.5,4,4.4,8.5,7.3,12.3c2.3,3,4.9,5.7,7.9,8
					c1.9,1.5,3.9,2.6,4.7,5c0.8,2.2,1.2,5.2,1,7.5c-0.1,2.7-1.6,4.8-2.5,7.3c-0.2,0.4-0.4,2.3-0.6,2.7c0.2,0.9-0.2,1-0.9,0.5
					c-0.6-0.2-1.1-0.3-1.7-0.4c-4.4-1.1-10.5-1.9-14.3-4.6c0.2,0.7,0.4,1.4,0.5,2.1c0.9-2.2,5.1-2.3,6.4-4.8s0.5-5.1-0.8-7.4
					c-3.9-6.3-10.4-11.5-15.4-16.9c-5.3-5.6-13.6-14.2-13.3-22.7c0.1-5.4,6.9-10.1,10.6-13.4c2.7-2.4,4.3-5.1,8.5-2.8
					c2,1.1,3.9,3.9,5.1,5.7c1.1,1.6,3.7,0.1,2.6-1.5c-2.2-3.2-5.2-6.9-8.8-8.6c-3.4-1.6-5.9,1.8-8.3,3.9
					c-7.1,6.2-15.3,12.1-11.7,22.3c3,8.4,9.2,15.2,15.2,21.4c3.5,3.6,7.1,7.1,10.3,10.9c1,1.2,2.6,2.5,3,4.1
					c0.6,2.4-0.8,4.2-2.8,5.6c-1.2,0.8-2.7,1.1-3.3,2.5c-0.3,0.8-0.2,1.5,0.5,2.1c3.3,2.3,8.6,3.3,12.4,4.3c1.9,0.5,6,2.3,7.9,0.8
					c0.6-0.5,0.7-1.1,1-1.8c0.9-2.2,1.5-4.7,2.3-7c1.4-3.9,0.9-8.2-0.1-12.1c-0.8-2.9-2.3-4.4-4.7-6.2c-4.4-3.4-8.1-7.3-11-12.1
					c-2.4-4-4.4-8.2-7.2-12c-2.2-2.9-4.9-6-3-9.9c1.3-2.7,4.6-4.6,7.1-6.2C1673.7,921.8,1672.2,919.2,1670.6,920.3L1670.6,920.3z"/>
			</g>
		</g>
		<g class="st25">
			<path d="M1654.4,832.1c-0.7,2.3-1.9,4.5-3.1,6.6c-1.2,2.2-2.5,4.4-3.7,6.6c-1.5,2.6-3,5.2-4.9,7.7c-1.1,1.4-2.3,2.7-4,3.4
				s-4.1,0.8-5.5-0.3c-2.1-1.6-1.2-4.5,0-6.7c3.7-7,7.6-14,13.6-19.8c0.8-0.7,1.8-1.5,3-1.3c0.4,0.1,0.8,0.3,1.1,0.6
				c1.2,0.8,2.5,1.6,3.7,2.4"/>
			<g>
				<path d="M1653,831.7c-1.8,5.1-4.9,9.8-7.6,14.5c-1.3,2.2-2.7,5.1-4.6,6.8c-1.7,2.3-4.1,2-7.2-0.8c0.4-1.2,1-2.4,1.6-3.5
					c2-4,4.4-8,7.1-11.7c1.2-1.6,3.6-5.4,5.5-6.3c2.5-1.2,4,0.7,6,2c1.6,1.1,3.1-1.5,1.5-2.6c-2.1-1.4-4.5-3.9-7.3-3
					c-3,0.9-5.4,4.6-7.2,6.9c-2.9,3.7-5.2,7.6-7.5,11.7c-1.3,2.5-3.5,5.7-3,8.6c1.1,5.7,8.3,4.5,11.6,1.7c3-2.6,4.9-6.5,6.9-9.9
					c2.5-4.4,5.3-8.8,7-13.6C1656.5,830.7,1653.6,829.9,1653,831.7L1653,831.7z"/>
			</g>
		</g>
		<g class="st25">
			<path class="st38" d="M1654.5,833.9c-1.4-0.7-9.8-5.5-11.5-5.7c-1.3-0.2-2.7-0.2-3.9,0.3c-1.1,0.5-1.8,1.4-1.9,2.4
				c-0.1,1.1,0.6,2.1,1.5,2.9c0.9,0.8,10.9,5.4,12,5.9"/>
			<g>
				<path d="M1655.3,832.6c-4-2.1-16.1-10.9-19.2-3c-1.3,3.3,1.7,5.5,4.3,6.8c3.2,1.6,6.4,3.1,9.6,4.6c1.7,0.9,3.2-1.7,1.5-2.6
					c-1.8-0.9-3.6-1.7-5.4-2.6c-1.6-0.8-5.1-1.7-6.3-3.2c-2.1-2.6,1-3.2,2.3-3.1c0.8,0.1,1.1,0.2,1.8,0.5c1.2,0.4,2.4,1.1,3.5,1.7
					c2.1,1.1,4.2,2.3,6.3,3.4C1655.5,836.1,1657,833.5,1655.3,832.6L1655.3,832.6z"/>
			</g>
		</g>
		<path class="st40" d="M1630.1,797.5c0,0-1.1,11.1,0,14.7c0.6,2.1,3.4,5.9,5,7.7c2.7,3,9.4,8.2,13.1,10.2c6.1,3.3,19.9,7.8,27,9.7
			c12.5,3.3,38.4,7.5,51.4,9.1c12.2,1.6,36.9,3.5,49.3,4c10.5,0.4,33.3-0.8,43.8-1.5c9.6-0.6,27.1-2.4,36.5-4.4
			c8.1-1.7,24.8-7.4,32.2-10.6c4.7-2.1,12.4-6,16.1-9.1c3.1-2.7,8.8-7.9,10.6-11.3c1.5-2.9,3.9-12.2,3.9-12.2L1630.1,797.5z"/>
		<path class="st36" d="M1630.1,799.2c0.7,4.4,7,12,10.6,15.4c4.1,3.9,14.2,10.4,19.9,12.7c9.1,3.6,28.8,7.9,38.7,9.8
			c10.8,2,32.8,4.2,43.8,4.9c16.6,1.1,49.9,1.9,66.4,1.2c11.6-0.5,34.8-2.3,45.9-4.9c9.3-2.1,26.7-9.2,35.3-12.7
			c3.4-1.4,10.4-3.9,13.3-5.8c4.7-3.2,13.2-11,14.8-15.8c1.6-4.9-0.4-15.5-3.3-20s-13.3-11-18.7-13.6c-7.2-3.5-23.7-7.1-31.7-9.2
			c-6.8-1.7-20.5-5-27.5-6c-7.7-1.1-23.3-2-31.1-2.4c-9-0.5-27.2-1-36.2-1c-10.3,0.1-30.9,0.7-41.1,1.7c-8.7,0.9-26,3.8-34.4,5.6
			c-8.1,1.7-24,6-31.7,8.6c-4.5,1.5-13.7,4.7-17.5,7.2c-3.3,2.2-8.9,7.6-10.9,10.7C1632.7,788.7,1629.6,795.7,1630.1,799.2z"/>
		<path class="st41" d="M1658.8,797.4c0.6,3.3,5.8,9.2,8.7,11.8c3.4,3,11.8,8,16.5,9.7c7.5,2.7,23.8,6.1,32,7.5
			c8.9,1.6,27.1,3.2,36.2,3.7c13.7,0.8,41.2,1.5,54.9,0.9c9.6-0.4,28.7-1.8,38-3.7c7.7-1.6,22.1-7.1,29.2-9.7c2.8-1,8.6-3,11-4.5
			c3.8-2.5,10.9-8.5,12.2-12.1c1.3-3.7-0.3-11.9-2.7-15.3c-2.4-3.4-11-8.4-15.5-10.4c-6-2.7-19.6-5.5-26.2-7
			c-5.6-1.3-16.9-3.8-22.7-4.6c-6.4-0.9-19.3-1.5-25.7-1.9c-7.5-0.4-22.5-0.8-30-0.7c-8.5,0.1-25.5,0.5-34,1.3
			c-7.2,0.7-21.5,2.9-28.5,4.3c-6.7,1.3-19.8,4.6-26.2,6.6c-3.7,1.2-11.3,3.6-14.5,5.5c-2.8,1.7-7.4,5.8-9,8.2
			C1660.9,789.3,1658.4,794.7,1658.8,797.4z"/>
		<g class="st25">
			<path class="st37" d="M1642.4,878.1c12.2,11.2,30.2,18,47.5,23.2c38.3,11.6,79.6,19.8,120.1,14.9c8.4-1,16.6-2.6,24.8-4.3
				c15-3.3,29.9-7.3,43.1-13.9c13.1-6.7,24.5-16.2,29.9-27.9l0.4,3.5c0.2,12.9-3.1,24.2-11.9,35s-19.6,22.5-33.7,28.7
				c-14.7,6.4-32.9,10.3-49.2,13c-19.6,3.2-42.7,3.1-62.6,1.3c-16.8-1.6-34.9-5.8-50.3-11.4c-12.8-4.7-24.2-13.1-34.9-20.5
				c-7.6-5.2-11.3-10.9-16.4-17.8c-5.1-6.9-8.4-12.4-7-20.6L1642.4,878.1z"/>
			<g>
				<path d="M1641.3,879.1c13.1,11.7,30,18,46.5,23.1c19.6,6,39.6,11,59.9,14c39.7,5.8,81.3,2.5,119-11.8
					c16.9-6.4,34.1-16.7,42.2-33.7c-0.9-0.3-1.9-0.5-2.8-0.8c2.4,20.9-9.1,37.5-23.5,51.4c-17.1,16.5-40.2,22.1-62.9,26.2
					c-22.8,4.2-46,4.6-69,2.4c-23.3-2.2-47.7-7.9-67.7-20.4c-10.6-6.6-21.3-13.4-28.9-23.6c-3.3-4.4-7-8.8-9.2-14
					c-2-4.7-1.4-9.2-1-14c0.2-1.9-2.8-1.9-3,0c-0.3,3.7-0.9,7.3-0.2,11c1.1,5.1,4.1,9.4,7.1,13.5s6,8.3,9.5,12
					c3.8,4,8.4,7,12.9,10.1c9.9,6.9,20,13.4,31.5,17.5c12.1,4.3,24.6,7.4,37.2,9.4c23.9,3.8,49.2,4.1,73.2,0.4
					c23.4-3.6,49.4-8.5,68-24.1c17.2-14.5,31.9-34.2,29.2-57.9c-0.2-1.3-2.1-2.3-2.8-0.8c-7.5,15.7-23.1,25.4-38.7,31.6
					c-17.7,7-37.1,11.2-56,13.6c-38.5,5-77.4-1.9-114.3-12.5c-18.9-5.5-38.9-11.6-53.9-25C1642,875.7,1639.9,877.8,1641.3,879.1z"/>
			</g>
		</g>
		<g class="st25">
			<path class="st38" d="M1756,866c1.6-0.2,3.3,0,4.9,0s3.5-0.4,4.3-1.6c0.5-0.6,0.5-1.4,0.9-2c1-1.7,3.8-2.1,6.1-2.2
				c5.3-0.3,10.6-0.4,15.9-0.2c0.7,0,1.5,0.1,2.1,0.4c0.9,0.6,0.9,1.6,1.4,2.4c0.9,1.4,3.2,1.7,5.2,1.8c3,0.2,2.3,0.2,5.3,0.2
				c0.3,1.3,0.8,2.5,0.7,3.8c0,0.4,0.1,1.9-0.3,2.3c-0.5,0.4-3.2-0.1-3.9-0.1c-2.8,0-0.6-0.3-3.4-0.3c-0.4,0-0.7,0-1,0.2
				c-0.7,0.3-0.6,1.1-0.7,1.8c-0.4,2.3-3.9,3-6.7,3.2c-5.4,0.4-10.8,0.6-16.2,0.5c-2,0-4.5-0.3-5.2-1.9c-0.2-0.5-0.2-1-0.4-1.5
				c-0.5-1.2-2.1-1.9-3.7-2.1c-1.6-0.2-3.1,0-4.7-0.2c-0.4,0-0.9-0.1-1.1-0.4c-0.2-0.2-0.3-0.6-0.3-0.9c-0.1-1.1-0.1-2.1,0-3.2"/>
			<g>
				<path d="M1756,867.5c3.1-0.2,7.3,0.9,9.8-1.6c2.1-2.1,3.1-3.9,6.4-4.2s6.6-0.3,10-0.3c3,0,5.8-0.5,8,1.7
					c0.8,0.8,1.3,1.6,2.4,2.2c2.8,1.3,6.6,0.9,9.6,1c-0.5-0.4-1-0.7-1.4-1.1c0.8,3.2,1.6,4.3-1.4,4.1c-1.3-0.1-2.7-0.4-4.1-0.3
					c-1.6,0.1-1.7,0.4-2.6,1.3c-0.8,0.8-0.6,1.6-1.6,2.5c-1.4,1.3-3.3,1.3-5.2,1.4c-3.3,0.3-6.6,0.4-9.9,0.4c-1.8,0-3.6,0.1-5.4,0
					c-2.6-0.1-2.7-0.9-4.3-2.6c-1.1-1.2-1.7-2-3.4-2.5c-2.7-0.8-6.2,0.7-6.2-3.4c0-1.9-3-1.9-3,0c0,2.4-0.4,4.6,2,5.6
					c1.6,0.7,3.6-0.1,5.3,0.5c2.2,0.7,2.4,2.6,4.1,3.9c2.3,1.8,5.6,1.5,8.3,1.6c4.9,0,9.9,0,14.7-0.6c2.4-0.3,4.5-0.9,6.2-2.7
					c1-1,0.7-1.9,2.4-2.3c0.6-0.1,1.8,0.2,2.4,0.2c1.6,0.1,3.7,0.8,4.8-0.6c1.4-1.7,0.2-5.5-0.2-7.3c-0.2-0.6-0.8-1.1-1.4-1.1
					c-1.5,0-3.1-0.1-4.6-0.2c-3.2-0.2-3.6-1.3-5.6-3.1c-2.8-2.5-7.2-1.7-10.7-1.6c-4.2,0-9.7-0.6-13.7,1.2c-1.3,0.6-1.7,1.2-2.7,2.1
					c-1.1,1-2,2.5-3.9,2.9c-1.4,0.3-3.4-0.1-4.9,0C1754.1,864.6,1754.1,867.6,1756,867.5L1756,867.5z"/>
			</g>
		</g>
		<g class="st25">
			<path d="M1758.4,870.4c-0.7,5-1.1,10.6,2.9,14.4c1.3,1.3,4.4,3.9,6.4,4.2c7.7,1.5,7.8,1,15.1,0.9c2.1,0,8.1-1.2,10-1.8
				c1.8-0.5,3.2-0.7,4.6-1.8c2.4-1.8,4-3.3,4.9-5.9c0.8-2,0.1-4.2,0.2-6.4c0-1.3-1.3-3.7-1.3-3.7l-4.4,0.1c0,0,1.5,5.7,0.9,7.5
				c-0.8,2.3-3.8,3.4-6.5,4.4s-5.6,1.3-8.5,1.5c-4.5,0.3-8.4,0.3-12.6-1s-7.1-3.6-7.2-7.2c0-1.1-0.4-4.7-0.4-4.7s-2.5-1-3.9-0.8"/>
			<g>
				<path d="M1756.9,870.4c-1,7.6,0.1,13.5,6.6,18.1c5.4,3.8,13.7,3.4,20,2.9c5.5-0.4,12.4-1.5,16.6-5.3c4.7-4.3,5.3-10.9,2.4-16.4
					c-0.2-0.5-0.8-0.8-1.3-0.7c-1.5,0-3,0.1-4.4,0.1c-1,0-1.7,0.9-1.4,1.9c0.7,2.9,1.8,6.2-1,8.5c-3.6,2.9-10.2,3-14.5,3.1
					c-4.4,0.1-10-0.1-13.5-3.2c-2.4-2.2-2.1-5.4-2.5-8.3c-0.1-0.7-0.4-1.2-1.1-1.4c-1.4-0.5-2.8-0.8-4.3-0.8c-1.9,0-1.9,3,0,3
					c1.3,0,2.3,0.3,3.5,0.7c-0.4-0.5-0.7-1-1.1-1.4c0.4,3.9,0.2,7.8,3.4,10.6c4.6,3.9,11.7,4.2,17.4,3.9c5.1-0.3,13-0.8,16.4-5.3
					c2.1-2.8,0.9-6.9,0.1-10c-0.5,0.6-1,1.3-1.4,1.9c1,0,4.5,0.1,3.7-0.4c-0.8-0.4,0.3,2.1,0.5,3c0.4,2.4,0.3,5-1.1,7.1
					c-3,4.7-9.7,5.7-14.8,6.4c-4.8,0.7-10.5,0.8-15.2-0.3c-8.9-2-11-9.3-10-17.5C1760.1,868.5,1757.1,868.5,1756.9,870.4
					L1756.9,870.4z"/>
			</g>
		</g>
		<g class="st25">
			<path d="M1898.1,832.3c0.5,2.3,1.4,4.5,2.4,6.6c0.9,2.2,1.9,4.4,2.8,6.6c1.1,2.6,2.3,5.2,3.7,7.7c0.8,1.4,1.8,2.7,3.1,3.4
				c1.3,0.8,3.1,0.8,4.2-0.3c1.6-1.6,0.9-4.5,0-6.7c-2.8-7-5.8-14-10.4-19.8c-0.6-0.7-1.4-1.5-2.3-1.3c-0.3,0.1-0.6,0.3-0.9,0.6
				c-0.9,0.8-1.9,1.6-2.8,2.4"/>
			<g>
				<path d="M1896.7,832.7c1.1,4.1,3,8,4.7,12c1.6,3.6,2.9,7.9,5.5,11c2.7,3.3,8.5,4.7,9.8-0.7c0.7-3-1-6.2-2.1-8.9
					c-1.6-3.8-3.3-7.7-5.4-11.3c-1.3-2.2-3.2-6.3-5.7-7.4c-2.7-1.1-4.6,1.6-6.4,3.1c-1.5,1.3,0.7,3.4,2.1,2.1c4.5-3.9,7.3,3.3,9,6.7
					c0.8,1.5,1.5,3.1,2.2,4.7c0.7,1.6,2.7,4.9,2.8,6.7c1,2-0.6,2.6-4.8,1.7c-0.6-1-1.1-2-1.6-3c-0.8-1.5-1.4-3.1-2.1-4.7
					c-1.8-4.2-3.9-8.4-5.1-12.9C1899.1,830,1896.2,830.8,1896.7,832.7L1896.7,832.7z"/>
			</g>
		</g>
		<g class="st25">
			<path class="st38" d="M1895.7,832.6c1.1-0.7,7.4-5.5,8.7-5.7c1-0.2,2.1-0.2,3,0.3c0.8,0.5,1.4,1.4,1.4,2.4
				c0.1,1.1-0.4,2.1-1.1,2.9c-0.7,0.8-8.3,5.4-9.1,5.9"/>
			<g>
				<path d="M1896.5,833.9c1.5-1,3-2.2,4.5-3.2c0.9-0.6,1.8-1.3,2.7-1.8c1.7-0.9,5.2-0.4,3,2.5c-1,1.3-3.1,2.2-4.5,3.1
					c-1.5,0.9-2.9,1.8-4.4,2.7c-1.6,1-0.1,3.6,1.5,2.6c2.3-1.5,4.6-2.9,6.9-4.4c2.4-1.6,4.9-3.8,3.8-7c-2.6-7.7-11.8,0.7-15.1,3
					C1893.4,832.4,1894.9,835,1896.5,833.9L1896.5,833.9z"/>
			</g>
		</g>
		<ellipse class="st42" cx="1733.5" cy="790.1" rx="9.6" ry="2.2"/>
		<ellipse class="st42" cx="1780.3" cy="810.3" rx="4.5" ry="2.5"/>
		<ellipse class="st42" cx="1810.1" cy="778.1" rx="7.3" ry="2.5"/>
		<ellipse class="st42" cx="1845.8" cy="794.9" rx="9.6" ry="2.6"/>
	</g>
	<g id="Globo" class="st25">
		<polygon class="st43" points="1680.8,561.4 1584,352.9 1490.1,172.5 1465.6,99.1 1136.1,467.9 		"/>
		<polygon class="st43" points="254.2,506.6 844.3,530.2 667.2,506.8 619.6,438.1 579,357.1 549.1,263.8 545,116.5 		"/>
		<path class="st44" d="M1485.2,0.2c-74.5-0.1-133.2,2.1-205.9,0.4c-41.2-1-29,3-101.3,1.4c-91.8-2-205-8-296-1
			c-95,8-190.3,1-285.3,0C560.7,1,527,0.3,489,0c36.1,0.3,72-1,108-1c95,1,190,10,285,2c91-7,180-6,271,6c43,6,76.7,16.3,117.7,12.3
			C1341.4,11.7,1408.5,6,1485.2,0.2c-2.8-5.9,3.8,7.6,0.8,1.8c-65.3-1.3-141.8,0.8-207,3.7c-96,4-182.7-2.7-278.7-4.7
			c-48-1-99.2-1.7-147.3,0.2C728.3,6,607.7,0.3,487.6,0c-30.1,62.3-44.3,126-44.3,198.6c0,276.8,243.1,501.2,543.1,501.2
			s543.1-224.4,543.1-501.2C1529.4,128.1,1513.6,61.1,1485.2,0.2z"/>
		<path class="st45" d="M1297,0c-41.2-0.9-93.6,1.3-137,1c-100.3-0.7-176.7-1-278,0c-95.3,0.9-189-1-285.3,0
			c-22,0.2-44.7-0.6-66.7-0.5c-31.1,62-47.5,129.2-47.5,202.4c0,263.4,225.6,477,503.8,477s503.8-213.6,503.8-477
			c0-75-15.1-139.7-47.7-202.9C1389,1,1360.3,1.3,1297,0z"/>
		<path class="st46" d="M1639,1079.9c-452.1-1.8-842.6,0.4-1323.3,0c-100.4-0.1-129.5-594.8-29.2-596.7c402.8-7.4,1010-2.4,1338,0
			C1727.4,484,1780.3,1080.5,1639,1079.9z"/>
		<polygon class="st47" points="332.8,593.7 368.9,592.8 367.4,551 1585.3,556.5 1586.4,593 1622.8,593.7 1635,1003.3 
			1596.8,1002.6 1597.8,1041.6 370.1,1041.6 368.3,999.3 331.6,998.4 		"/>
		<g>
			<path class="st48" d="M1451.1,60c1.4,89.9-19.7,161.5-43.2,220.8c-19.4,48.9-41.2,93.2-67,125s-55.8,50.6-88,47.4
				c36.4,9.2,72.8,8.7,105.1-12.9c32.4-21.6,60.6-65.7,75.7-132.4c15.7-69.1,16.4-156.6,16.9-241.4"/>
			<g>
				<path class="st48" d="M1449.6,60c0.8,62.5-9.5,124.2-29.5,183.3c-9.9,29.3-21.6,58.1-34.8,86c-13.2,27.8-28.4,55.3-48.3,78.9
					c-21,24.8-49.9,46.6-84.1,43.5c-1.7-0.2-2,2.5-0.4,2.9c33,8.2,68.2,8.6,98.6-8.3c22-12.2,39-31.9,51.8-53.3
					c34.6-57.8,42.3-128.4,46.1-194.4c2.6-44,2.8-88,3-132.1c0-1.9-3-1.9-3,0c-0.4,72.3,0.2,145.6-12.1,217.1
					c-5.5,32-14,63.9-28.6,93c-11.2,22.4-26.2,43.9-46.5,59c-31.9,23.8-71.3,25.3-108.7,16c-0.1,1-0.3,2-0.4,2.9
					c28.5,2.6,54-11.8,73.9-31.1c22.5-21.8,39.1-49.3,53.4-76.9c27.9-54.3,49.9-113.2,62.1-173.1c7.6-37.4,11-75.5,10.5-113.6
					C1452.6,58,1449.6,58,1449.6,60L1449.6,60z"/>
			</g>
		</g>
		<path class="st49" d="M1255.9,727.6c0,0-20.6-314.7,8.2-414.6c8.3-28.7,38.3-83.8,61.7-103.2c25.6-21.2,83.8-43.5,115.6-54.3
			c21.1-7.2,73-13.7,95.4-13.6c24.3,0.1,83.7,16.4,106,25.7c23.1,9.5,56.7,27.6,75,44.1c23.3,20.9,57.2,75.7,66,105.2
			c29,97.3,21.7,410.8,21.7,410.8L1255.9,727.6L1255.9,727.6z"/>
		<ellipse cx="394.7" cy="574.4" rx="20.5" ry="14.5"/>
		<ellipse cx="394.7" cy="1021.3" rx="20.5" ry="14.5"/>
		<ellipse cx="1559.9" cy="575.9" rx="20.5" ry="14.5"/>
		<ellipse cx="1574.7" cy="1021.3" rx="20.5" ry="14.5"/>
		<path class="st50" d="M537.4,191.5c4.1,20.9,13.3,63.1,21.7,81.3c7.9,17,29.9,44,41.2,56.5c14.2,15.8,61.4,54.3,61.4,54.3
			s-84.4-20.3-105.9-45c-13.1-15-28.9-60.3-32.5-83.7c-4.8-30.7,6.1-125.6,6.1-125.6S534.4,176.3,537.4,191.5z"/>
		<polygon class="st43" points="184.8,725.3 177.2,698.8 170.6,674.2 168.5,665.6 128.7,713.4 		"/>
		<polygon class="st43" points="38,718.3 98.7,721.3 80.5,718.3 75.6,709.6 71.4,699.3 68.3,687.5 67.9,668.8 		"/>
		<ellipse class="st44" cx="111.9" cy="673.9" rx="64.1" ry="51.4"/>
		<ellipse class="st45" cx="111.9" cy="674.3" rx="59.5" ry="48.9"/>
		<path class="st46" d="M180.5,791.1c-46.5-0.2-86.7,0.1-136.2,0c-10.3,0-13.3-75.6-3-75.8c41.5-0.9,104-0.3,137.7,0
			C189.6,715.4,195.1,791.2,180.5,791.1z"/>
		<polygon class="st47" points="46.1,729.4 49.8,729.3 49.6,724 175,724.6 175.1,729.3 178.9,729.4 180.1,781.4 176.2,781.3 
			176.3,786.3 49.9,786.3 49.7,780.9 45.9,780.8 		"/>
		<g>
			<path class="st48" d="M167,661.7c-0.3,10.7-4,19.3-8.2,26.5c-3.4,5.9-7.2,11.3-11.5,15.2s-9.3,6.3-14.5,6.1
				c5.9,0.9,11.7,0.7,17.1-2c5.4-2.7,10.2-8.1,13-16.1c2.9-8.3,3.5-18.7,4-28.8"/>
			<g>
				<path class="st48" d="M165.5,661.7c-0.4,9.9-3.8,18.8-8.8,27.2c-5.2,8.7-12.6,19-23.9,19c-1.6,0-2.1,2.7-0.4,2.9
					c11.2,1.5,21.4-1.4,27.9-11.1c7.2-10.7,7.4-24.9,8-37.3c0.1-1.9-2.9-1.9-3,0c-0.6,10.6-0.7,22.1-5.4,31.9
					c-5.2,10.8-15.1,15.3-26.8,13.7c-0.1,1-0.3,2-0.4,2.9c11.2,0,19-8.9,24.7-17.7c6.2-9.6,10.5-20,11-31.6
					C168.6,659.8,165.6,659.8,165.5,661.7L165.5,661.7z"/>
			</g>
		</g>
		
			<ellipse transform="matrix(0.9439 -0.3302 0.3302 0.9439 -206.245 66.4272)" class="st48" cx="92.4" cy="640.3" rx="17.7" ry="7.1"/>
		<ellipse cx="52.4" cy="726.9" rx="2.1" ry="1.8"/>
		<ellipse cx="52.4" cy="783.7" rx="2.1" ry="1.8"/>
		<ellipse cx="172.4" cy="727.1" rx="2.1" ry="1.8"/>
		<ellipse cx="173.9" cy="783.7" rx="2.1" ry="1.8"/>
		<path class="st50" d="M58.9,673.2c0.5,2.1,1.6,6.5,2.6,8.3c0.9,1.7,3.5,4.5,4.9,5.8c1.7,1.6,7.2,5.6,7.2,5.6s-10-2.1-12.5-4.6
			c-1.5-1.5-3.4-6.2-3.8-8.6c-0.6-3.1,0.7-12.9,0.7-12.9S58.6,671.6,58.9,673.2z"/>
	</g>
</g>
<g id="Layer_2" class="st0">
	<g id="Globo_1_" class="st25">
		<polygon class="st43" points="1765.6,563.1 1653,354.6 1543.8,174.2 1515.3,100.8 1132.1,469.6 		"/>
		<polygon class="st43" points="106.5,508.3 792.8,531.9 586.8,508.5 531.4,439.8 484.2,358.8 449.5,265.5 444.7,118.2 		"/>
		<path class="st44" d="M1538.1,1.9c-86.6-0.1-154.9,2.1-239.5,0.4c-47.9-1-33.7,3-117.8,1.4c-106.8-2-238.4-8-344.2-1
			c-110.5,8-221.3,1-331.8,0c-41.9,0-81.1-0.7-125.2-1c42,0.3,83.7-1,125.6-1c110.5,1,221,10,331.4,2c105.8-7,209.3-6,315.2,6
			c50,6,89.2,16.3,136.9,12.3C1370.9,13.4,1448.9,7.7,1538.1,1.9c-3.3-5.9,4.4,7.6,0.9,1.8c-75.9-1.3-164.9,0.8-240.7,3.7
			c-111.6,4-212.5-2.7-324.1-4.7c-55.8-1-115.4-1.7-171.3,0.2C657.9,7.7,517.6,2,377.9,1.7c-35,62.3-51.5,126-51.5,198.6
			c0,276.8,282.7,501.2,631.6,501.2s631.6-224.4,631.6-501.2C1589.5,129.8,1571.1,62.8,1538.1,1.9z"/>
		<path class="st45" d="M1319.2,1.7c-47.9-0.9-108.9,1.3-159.3,1c-116.6-0.7-205.5-1-323.3,0c-110.8,0.9-219.8-1-331.8,0
			c-25.6,0.2-52-0.6-77.6-0.5c-36.2,62-55.2,129.2-55.2,202.4c0,263.4,262.4,477,585.9,477s585.9-213.6,585.9-477
			c0-75-17.6-139.7-55.5-202.9C1426.2,2.7,1392.8,3,1319.2,1.7z"/>
		<path class="st46" d="M1717,1081.6c-525.8-1.8-979.9,0.4-1538.9,0c-116.8-0.1-150.6-594.8-34-596.7c468.4-7.4,1174.6-2.4,1556,0
			C1819.8,485.7,1881.3,1082.2,1717,1081.6z"/>
		<polygon class="st47" points="197.9,595.4 239.9,594.5 238.2,552.7 1654.5,558.2 1655.8,594.7 1698.1,595.4 1712.3,1005 
			1667.9,1004.3 1669,1043.3 241.3,1043.3 239.2,1001 196.5,1000.1 		"/>
		<g>
			<path class="st48" d="M1498.4,61.7c1.6,89.9-22.9,161.5-50.2,220.8c-22.6,48.9-47.9,93.2-77.9,125c-30,31.8-64.9,50.6-102.3,47.4
				c42.3,9.2,84.7,8.7,122.2-12.9c37.7-21.6,70.5-65.7,88-132.4c18.3-69.1,19.1-156.6,19.7-241.4"/>
			<g>
				<path class="st48" d="M1496.7,61.7c0.9,62.5-11,124.2-34.3,183.3c-11.5,29.3-25.1,58.1-40.5,86c-15.4,27.8-33,55.3-56.2,78.9
					c-24.4,24.8-58,46.6-97.8,43.5c-2-0.2-2.3,2.5-0.5,2.9c38.4,8.2,79.3,8.6,114.7-8.3c25.6-12.2,45.4-31.9,60.2-53.3
					c40.2-57.8,49.2-128.4,53.6-194.4c3-44,3.3-88,3.5-132.1c0-1.9-3.5-1.9-3.5,0c-0.5,72.3,0.2,145.6-14.1,217.1
					c-6.4,32-16.3,63.9-33.3,93c-13,22.4-30.5,43.9-54.1,59c-37.1,23.8-82.9,25.3-126.4,16c-0.1,1-0.3,2-0.5,2.9
					c33.1,2.6,62.8-11.8,85.9-31.1c26.2-21.8,45.5-49.3,62.1-76.9c32.4-54.3,58-113.2,72.2-173.1c8.8-37.4,12.8-75.5,12.2-113.6
					C1500.2,59.7,1496.7,59.7,1496.7,61.7L1496.7,61.7z"/>
			</g>
		</g>
		<path class="st49" d="M1271.4,729.3c0,0-24-314.7,9.5-414.6c9.7-28.7,44.5-83.8,71.8-103.2c29.8-21.2,97.5-43.5,134.4-54.3
			c24.5-7.2,84.9-13.7,110.9-13.6c28.3,0.1,97.3,16.4,123.3,25.7c26.9,9.5,65.9,27.6,87.2,44.1c27.1,20.9,66.5,75.7,76.8,105.2
			c33.7,97.3,25.2,410.8,25.2,410.8L1271.4,729.3L1271.4,729.3z"/>
		<ellipse cx="269.9" cy="576.1" rx="23.8" ry="14.5"/>
		<ellipse cx="269.9" cy="1023" rx="23.8" ry="14.5"/>
		<ellipse cx="1625" cy="577.6" rx="23.8" ry="14.5"/>
		<ellipse cx="1642.2" cy="1023" rx="23.8" ry="14.5"/>
		<path class="st50" d="M435.9,193.2c4.8,20.9,15.5,63.1,25.2,81.3c9.2,17,34.8,44,47.9,56.5c16.5,15.8,71.4,54.3,71.4,54.3
			s-98.2-20.3-123.2-45c-15.2-15-33.6-60.3-37.8-83.7c-5.6-30.7,7.1-125.6,7.1-125.6S432.4,178,435.9,193.2z"/>
	</g>
	<path class="st51" d="M372,13c0,0,86.7,26.6,112.6,41.1c22.7,12.7,80.5,64.2,80.5,64.2l32.2,26.4c0,0-51.2-66.8-72.4-85.5
		c-13.2-11.7-42.4-33.2-59.5-39C443.3,12.7,372,13,372,13z"/>
	<path class="st51" d="M1481.3,481c0,0-50-11.5-64.9-19.2c-17.1-8.8-47.3-33-59.5-47.2c-15.7-18.2-46.7-82.6-46.7-82.6l85.6,92
		L1481.3,481z"/>
	<polygon class="st52" points="420.5,14.3 414.1,26.6 372,13 	"/>
	<polygon class="st52" points="1451.4,461.8 1443.7,471.3 1481.3,481 	"/>
</g>
<g id="Layer_3_1_" class="st0">
	<polygon class="st10" points="1769.3,564.5 1656.4,357.3 1546.8,178 1518.2,105 1133.7,471.6 	"/>
	<polygon class="st10" points="104.6,510.1 793.2,533.5 586.5,510.3 531,442 483.6,361.5 448.7,268.7 443.9,122.3 	"/>
	<path class="st53" d="M1541.1,6.7c-86.9-0.1-155.4,2.1-240.3,0.4c-48.1-1-33.8,3-118.2,1.4c-107.1-2-239.2-8-345.4-1
		c-110.9,8-222.1,1-332.9,0c-42,0-81.3-0.7-125.7-1c42.1,0.3,84-1,126-1c110.9,1,221.7,9.9,332.6,2c106.2-7,210.1-6,316.2,6
		c50.2,6,89.5,16.2,137.4,12.2C1373.3,18.1,1451.6,12.5,1541.1,6.7c-3.3-5.9,4.4,7.6,0.9,1.8c-76.2-1.3-165.5,0.8-241.6,3.7
		c-112,4-213.2-2.7-325.2-4.7c-56-1-115.8-1.7-171.9,0.2c-145.5,4.8-286.3-0.9-426.4-1.2c-35.1,61.9-51.7,125.2-51.7,197.4
		c0,275.1,283.7,498.2,633.8,498.2s633.8-223.1,633.8-498.2C1592.7,133.8,1574.2,67.2,1541.1,6.7z"/>
	<path class="st54" d="M1321.5,6.5c-48.1-0.9-109.2,1.3-159.9,1c-117-0.7-206.2-1-324.4,0c-111.2,0.9-220.6-1-332.9,0
		c-25.7,0.2-52.2-0.6-77.8-0.5C390.1,68.6,371,135.4,371,208.2c0,261.8,263.3,474.2,587.9,474.2s587.9-212.3,587.9-474.2
		c0-74.6-17.6-138.9-55.7-201.7C1428.8,7.5,1395.3,7.8,1321.5,6.5z"/>
	<path class="st55" d="M1720.6,1080c-527.6-1.8-983.3,0.4-1544.2,0c-117.2-0.1-151.1-591.3-34.1-593.1
		c470.1-7.4,1178.6-2.4,1561.4,0C1823.7,487.6,1885.5,1080.5,1720.6,1080z"/>
	<polygon class="st56" points="196.3,596.7 238.4,595.8 236.7,554.2 1657.9,559.7 1659.2,596 1701.7,596.7 1715.9,1003.8 
		1671.3,1003.1 1672.5,1041.9 239.8,1041.9 237.7,999.8 194.9,998.9 	"/>
	<g class="st25">
		<path class="st48" d="M1501.3,66.1c1.6,89.4-23,160.5-50.4,219.5c-22.6,48.6-48.1,92.6-78.2,124.3s-65.1,50.3-102.7,47.1
			c42.5,9.1,85,8.6,122.6-12.8c37.8-21.5,70.7-65.3,88.3-131.6c18.3-68.7,19.1-155.7,19.7-240"/>
		<g>
			<path class="st48" d="M1499.5,66.1c0.9,62.1-11.1,123.5-34.4,182.2c-11.6,29.1-25.2,57.8-40.6,85.5c-15.4,27.6-33.1,55-56.4,78.4
				c-24.5,24.7-58.2,46.3-98.1,43.2c-2-0.2-2.3,2.5-0.5,2.9c38.5,8.2,79.6,8.5,115.1-8.3c25.7-12.1,45.5-31.7,60.4-53
				c40.4-57.5,49.4-127.6,53.8-193.2c3-43.7,3.3-87.5,3.5-131.3c0-1.9-3.5-1.9-3.5,0c-0.5,71.9,0.2,144.7-14.1,215.8
				c-6.4,31.8-16.3,63.5-33.4,92.4c-13.1,22.3-30.6,43.6-54.3,58.6c-37.2,23.7-83.2,25.1-126.8,15.9c-0.1,1-0.4,2-0.5,2.9
				c33.3,2.6,63-11.7,86.2-30.9c26.3-21.7,45.6-49,62.3-76.4c32.6-54,58.2-112.5,72.5-172.1c8.9-37.2,12.8-75,12.3-112.9
				C1503,64.1,1499.5,64.1,1499.5,66.1L1499.5,66.1z"/>
		</g>
	</g>
	<ellipse class="st25" cx="268.5" cy="577.5" rx="23.9" ry="14.4"/>
	<ellipse class="st25" cx="268.5" cy="1021.7" rx="23.9" ry="14.4"/>
	<ellipse class="st25" cx="1628.3" cy="579" rx="23.9" ry="14.4"/>
	<ellipse class="st25" cx="1645.5" cy="1021.7" rx="23.9" ry="14.4"/>
	<path class="st57" d="M435,196.8c4.8,20.8,15.5,62.7,25.3,80.8c9.2,16.9,34.9,43.7,48.1,56.2c16.6,15.7,71.7,54,71.7,54
		s-98.5-20.2-123.6-44.7c-15.3-14.9-33.7-59.9-37.9-83.2c-5.6-30.5,7.1-124.9,7.1-124.9S431.5,181.7,435,196.8z"/>
	<path class="st51" d="M371,17.7c0,0,87,26.4,113,40.8c22.8,12.6,80.7,63.8,80.7,63.8l32.3,26.2c0,0-51.4-66.4-72.7-85
		c-13.3-11.6-42.6-33-59.8-38.8C442.5,17.4,371,17.7,371,17.7z"/>
	<path class="st51" d="M1484.1,482.9c0,0-50.2-11.4-65.1-19.1c-17.2-8.8-47.5-32.8-59.8-46.9c-15.7-18.1-46.8-82.1-46.8-82.1
		l85.9,91.4L1484.1,482.9z"/>
	<path class="st51" d="M1385.7,8.2c0,0-27.2,23.3-37.2,30c-15.2,10.2-47.7,28.1-64.6,35.8c-20.6,9.4-85.6,31-85.6,31
		s133.7-15.8,174.4-32.5c19.3-7.9,54.1-31.5,67.8-46.2c3.8-4.1,11-19.2,11-19.2L1385.7,8.2z"/>
	<path class="st51" d="M427.2,475c0,0,68.9-6.3,91.3-11.1c15.8-3.4,48-10.9,61.7-19c17.7-10.5,75.6-65.2,75.6-65.2
		s-9.5,24.5-14.4,35.7C636,427.4,609,457,597,463.8c-14.6,8.4-65.3,19.5-65.3,19.5l-97.9-0.4L427.2,475z"/>
	<polygon class="st52" points="419.6,19 413.2,31.2 371,17.7 	"/>
	<polygon class="st52" points="469.2,470.7 480.1,483.4 433.9,482.9 427.2,475 	"/>
	<polygon class="st52" points="1454.1,463.8 1446.4,473.3 1484.1,482.9 	"/>
</g>
<g id="Layer_4" class="st0">
	<polygon class="st10" points="1767,563.1 1654.1,354.6 1544.5,174.2 1516,100.8 1131.7,469.6 	"/>
	<polygon class="st10" points="103,508.3 791.3,531.9 584.7,508.5 529.2,439.8 481.9,358.8 447,265.5 442.2,118.2 	"/>
	<path class="st53" d="M1538.8,1.9c-86.9-0.1-155.4,2.1-240.2,0.4c-48.1-1-33.8,3-118.2,1.4c-107.1-2-239.1-8-345.2-1
		c-110.8,8-222,1-332.8,0c-42,0-81.3-0.7-125.6-1c42.1,0.3,84-1,126-1c110.8,1,221.6,10,332.4,2c106.1-7,209.9-6,316.1,6
		c50.2,6,89.5,16.3,137.3,12.3C1371.1,13.4,1449.4,7.7,1538.8,1.9c-3.3-5.9,4.4,7.6,0.9,1.8c-76.2-1.3-165.4,0.8-241.4,3.7
		c-112,4-213.1-2.7-325.1-4.7c-56-1-115.7-1.7-171.8,0.2C656,7.7,515.3,2,375.3,1.7c-35.1,62.3-51.7,126-51.7,198.6
		c0,276.8,283.5,501.2,633.4,501.2s633.4-224.4,633.4-501.2C1590.4,129.8,1572,62.8,1538.8,1.9z"/>
	<path class="st54" d="M1319.3,1.7c-48.1-0.9-109.2,1.3-159.8,1c-117-0.7-206.1-1-324.2,0c-111.2,0.9-220.4-1-332.8,0
		c-25.7,0.2-52.1-0.6-77.8-0.5c-36.3,62-55.4,129.2-55.4,202.4c0,263.4,263.1,477,587.6,477s587.6-213.6,587.6-477
		c0-75-17.6-139.7-55.6-202.9C1426.6,2.7,1393.1,3,1319.3,1.7z"/>
	<path class="st55" d="M1718.2,1081.6c-527.3-1.8-982.8,0.4-1543.4,0c-117.1-0.1-151-594.8-34.1-596.7c469.8-7.4,1178-2.4,1560.6,0
		C1821.3,485.7,1883,1082.2,1718.2,1081.6z"/>
	<polygon class="st56" points="194.7,595.4 236.8,594.5 235.1,552.7 1655.6,558.2 1656.9,594.7 1699.3,595.4 1713.5,1005 
		1669,1004.3 1670.2,1043.3 238.2,1043.3 236.1,1001 193.3,1000.1 	"/>
	<g class="st25">
		<path class="st48" d="M1499.1,61.7c1.6,89.9-23,161.5-50.4,220.8c-22.6,48.9-48.1,93.2-78.1,125s-65.1,50.6-102.6,47.4
			c42.5,9.2,84.9,8.7,122.6-12.9c37.8-21.6,70.7-65.7,88.3-132.4c18.3-69.1,19.1-156.6,19.7-241.4"/>
		<g>
			<path class="st48" d="M1497.3,61.7c0.9,62.5-11.1,124.2-34.4,183.3c-11.5,29.3-25.2,58.1-40.6,86c-15.4,27.8-33.1,55.3-56.3,78.9
				c-24.5,24.8-58.2,46.6-98.1,43.5c-2-0.2-2.3,2.5-0.5,2.9c38.5,8.2,79.5,8.6,115-8.3c25.7-12.2,45.5-31.9,60.4-53.3
				c40.4-57.8,49.3-128.4,53.8-194.4c3-44,3.3-88,3.5-132.1c0-1.9-3.5-1.9-3.5,0c-0.5,72.3,0.2,145.6-14.1,217.1
				c-6.4,32-16.3,63.9-33.4,93c-13.1,22.4-30.6,43.9-54.2,59c-37.2,23.8-83.2,25.3-126.8,16c-0.1,1-0.3,2-0.5,2.9
				c33.2,2.6,63-11.8,86.2-31.1c26.2-21.8,45.6-49.3,62.3-76.9c32.5-54.3,58.2-113.2,72.4-173.1c8.9-37.4,12.8-75.5,12.2-113.6
				C1500.8,59.7,1497.3,59.7,1497.3,61.7L1497.3,61.7z"/>
		</g>
	</g>
	<ellipse class="st25" cx="266.9" cy="576.1" rx="23.9" ry="14.5"/>
	<ellipse class="st25" cx="266.9" cy="1023" rx="23.9" ry="14.5"/>
	<ellipse class="st25" cx="1626" cy="577.6" rx="23.9" ry="14.5"/>
	<ellipse class="st25" cx="1643.2" cy="1023" rx="23.9" ry="14.5"/>
	<path class="st57" d="M433.4,193.2c4.8,20.9,15.5,63.1,25.3,81.3c9.2,17,34.9,44,48.1,56.5c16.6,15.8,71.6,54.3,71.6,54.3
		s-98.4-20.3-123.5-45c-15.3-15-33.7-60.3-37.9-83.7C411.3,225.9,424,131,424,131S429.9,178,433.4,193.2z"/>
	<path class="st51" d="M369.3,13c0,0,87,26.6,113,41.1c22.8,12.7,80.7,64.2,80.7,64.2l32.3,26.4c0,0-51.3-66.8-72.6-85.5
		c-13.3-11.7-42.6-33.2-59.7-39C440.8,12.7,369.3,13,369.3,13z"/>
	<path class="st51" d="M1481.9,481c0,0-50.2-11.5-65.1-19.2c-17.1-8.8-47.5-33-59.7-47.2c-15.7-18.2-46.8-82.6-46.8-82.6l85.8,92
		L1481.9,481z"/>
	<path class="st51" d="M1383.5,3.4c0,0-27.2,23.5-37.2,30.2c-15.2,10.3-47.7,28.3-64.6,36c-20.6,9.4-85.5,31.2-85.5,31.2
		s133.7-15.9,174.3-32.7c19.3-7.9,54.1-31.7,67.8-46.5c3.8-4.1,11-19.3,11-19.3L1383.5,3.4z"/>
	<path class="st51" d="M425.5,473c0,0,68.8-6.4,91.2-11.2c15.8-3.4,48-11,61.6-19.1c17.7-10.6,75.6-65.6,75.6-65.6
		s-9.5,24.6-14.4,35.9c-5.3,12.1-32.2,41.9-44.2,48.8c-14.6,8.4-65.3,19.6-65.3,19.6l-97.8-0.4L425.5,473z"/>
	<path class="st51" d="M738.4-1.7c0,0,20.6,24.6,25.8,33.8c9.2,16.2,23.7,50.7,27.1,68.7c8.3,43.3,3.6,130.8,3.6,130.8
		s41.6-85.8,49.9-130.8c4.5-24.3,6.6-98.5,6.6-98.5L738.4-1.7z"/>
	<path class="st51" d="M1074.1,481.6c0,0,47.6-50,57.5-70c15.6-31.3,31.8-100.5,31.2-135c-0.3-20.5-21-79.5-21-79.5
		s84.1,81.2,98.5,115.5c12.4,29.8,9.7,127.5,9.7,127.5V487L1074.1,481.6z"/>
	<polygon class="st52" points="417.9,14.3 411.5,26.6 369.3,13 	"/>
	<polygon class="st52" points="467.5,468.7 478.9,482 432.2,481 425.5,473 	"/>
	<polygon class="st52" points="1452.3,461.3 1444.1,471.3 1481.9,481 	"/>
</g>
<g id="Layer_5_1_">
	<polygon class="st43" points="1764.1,560.1 1651.6,351.6 1542.5,171.2 1514,97.8 1131,466.6 	"/>
	<polygon class="st43" points="105.9,505.3 791.8,528.9 586,505.5 530.6,436.8 483.5,355.8 448.7,262.5 432.8,143 	"/>
	<path class="st44" d="M1296.5,58.7c-111.6,4-227.4,60-339.5,39.1c-55.8-1-274.2,94.4-330.1,96.3c-153.9,22.6-200,27.6-279.9-91
		c-22,68.1-21.3,21.7-21.3,94.3c0,276.8,282.6,501.2,631.3,501.2s631.3-224.4,631.3-501.2c-0.1-70.5,0.3-86.4-32.7-147.3
		c-86.6-0.1-180.4,57.7-264.9,56c-47.9-1-75.7-4.5-159.7-6.1c-106.7-2-193.5,42.1-299.3,49.1c-110.4,8-104.1,11-214.5,10
		c-41.8,0-176.7,18.3-220.9,18c42,0.3,179.1,1,220.9,1c110.4,1,103-42,213.4-50c105.8-7,173-38,278.8-26c50,6,129.3-0.2,176.9-4.2"
		/>
	<path class="st45" d="M1316.5,39c-47.9-0.9-180.2,52-203.8,52c-24.7,6.8-267.1-5.9-281-6c-63.5,14.1-181.7,67.2-215.6,69
		c-13.3,1-214-11.1-239.6-11c-6.8,73.6-5.3-14.6-5.3,58.6c0,263.4,262.2,477,585.6,477s585.6-213.6,585.6-477
		c0-75-5.7-79.9-43.6-143.1C1436.8,59.5,1390,40.3,1316.5,39z"/>
	<path class="st46" d="M1715.6,1078.6c-525.5-1.8-979.4,0.4-1538.1,0c-116.7-0.1-150.5-594.8-33.9-596.7
		c468.2-7.4,1174-2.4,1555.2,0C1818.3,482.7,1879.8,1079.2,1715.6,1078.6z"/>
	<polygon class="st47" points="197.3,592.4 239.2,591.5 237.5,549.7 1653.1,555.2 1654.4,591.7 1696.7,592.4 1710.9,1002 
		1666.5,1001.3 1667.7,1040.3 240.6,1040.3 238.5,998 195.9,997.1 	"/>
	<g>
		<path class="st48" d="M1497.1,58.7c1.6,89.9-22.9,161.5-50.2,220.8c-22.5,48.9-47.9,93.2-77.9,125s-64.9,50.6-102.3,47.4
			c42.3,9.2,84.6,8.7,122.2-12.9c37.7-21.6,70.4-65.7,88-132.4c18.2-69.1,19.1-156.6,19.6-241.4"/>
		<g>
			<path class="st48" d="M1495.4,58.7c0.9,62.5-11,124.2-34.3,183.3c-11.5,29.3-25.1,58.1-40.5,86c-15.3,27.8-33,55.3-56.1,78.9
				c-24.4,24.8-58,46.6-97.8,43.5c-2-0.2-2.3,2.5-0.5,2.9c38.4,8.2,79.3,8.6,114.6-8.3c25.6-12.2,45.3-31.9,60.2-53.3
				c40.2-57.8,49.2-128.4,53.6-194.4c3-44,3.3-88,3.5-132.1c0-1.9-3.5-1.9-3.5,0c-0.5,72.3,0.2,145.6-14.1,217.1
				c-6.4,32-16.3,63.9-33.2,93c-13,22.4-30.5,43.9-54,59c-37.1,23.8-82.9,25.3-126.3,16c-0.1,1-0.3,2-0.5,2.9
				c33.1,2.6,62.8-11.8,85.9-31.1c26.2-21.8,45.4-49.3,62.1-76.9c32.4-54.3,58-113.2,72.2-173.1c8.8-37.4,12.8-75.5,12.2-113.6
				C1498.9,56.7,1495.4,56.7,1495.4,58.7L1495.4,58.7z"/>
		</g>
	</g>
	<ellipse cx="269.2" cy="573.1" rx="23.8" ry="14.5"/>
	<ellipse cx="269.2" cy="1020" rx="23.8" ry="14.5"/>
	<ellipse cx="1623.6" cy="574.6" rx="23.8" ry="14.5"/>
	<ellipse cx="1640.8" cy="1020" rx="23.8" ry="14.5"/>
	<path class="st50" d="M435.1,190.2c4.8,20.9,15.5,63.1,25.2,81.3c9.2,17,34.8,44,47.9,56.5c16.5,15.8,71.4,54.3,71.4,54.3
		s-98.1-20.3-123.1-45c-15.2-15-33.6-60.3-37.8-83.7c-5.6-30.7,7.1-125.6,7.1-125.6S431.6,175,435.1,190.2z"/>
	<path class="st58" d="M1480.1,478c0,0-50-11.5-64.9-19.2c-17.1-8.8-47.3-33-59.5-47.2c-15.6-18.2-46.6-82.6-46.6-82.6l85.5,92
		L1480.1,478z"/>
	<path class="st58" d="M1400.7,46.3c0,0-25.7-8.1-35.4-1.3c-14.9,10.3-53.3,19.8-69.8,27.6c-20.1,9.4-83.5,31.2-83.5,31.2
		s130.6-15.9,170.3-32.7c18.8-7.9,40-0.7,25-14.1c-13.3-11.8,0,0,0,0L1400.7,46.3z"/>
	<path class="st58" d="M427.2,469.9c0,0,68.6-6.4,90.9-11.2c15.8-3.4,47.8-11,61.4-19.1c17.6-10.6,75.3-65.6,75.3-65.6
		s-9.5,24.6-14.4,35.9c-5.3,12.1-32.1,41.9-44,48.8c-14.5,8.4-65,19.6-65,19.6l-97.5-0.4L427.2,469.9z"/>
	<path class="st58" d="M1073.7,478.5c0,0,47.5-50,57.3-70c15.5-31.3,31.6-100.5,31.1-135c-0.3-20.5-20.9-79.5-20.9-79.5
		s83.8,81.2,98.1,115.5c12.4,29.8,9.7,127.5,9.7,127.5v42.2L1073.7,478.5z"/>
	<polygon class="st59" points="469.2,465.6 480.5,478.9 433.9,478 427.2,469.9 	"/>
	<polygon class="st59" points="1450.5,458.2 1442.4,468.3 1480.1,478 	"/>
</g>
<g id="Layer_6" class="st0">
	<polygon class="st10" points="1557.1,693.6 1480.4,538.2 1405.9,403.8 1386.4,349.1 1125.1,623.9 	"/>
	<polygon class="st10" points="425.6,652.8 893.7,670.3 753.2,652.9 715.4,601.7 683.2,541.4 659.5,471.8 648.7,382.8 	"/>
	<path class="st53" d="M1238.1,320c-76.1,3-155.1,44.7-231.7,29.1c-38.1-0.7-187.1,70.3-225.2,71.8c-105,16.8-136.5,20.5-191-67.8
		c-15,50.8-14.5,16.1-14.5,70.2c0,206.3,192.8,373.5,430.8,373.5s430.8-167.2,430.8-373.5c-0.1-52.5,0.2-64.3-22.3-109.7
		c-59.1-0.1-123.1,43-180.7,41.7c-32.7-0.7-51.6-3.4-109-4.6c-72.8-1.5-132,31.4-204.2,36.6c-75.3,6-71,8.2-146.4,7.5
		c-28.6,0-120.6,13.6-150.7,13.4c28.6,0.2,122.2,0.7,150.7,0.7c75.3,0.7,70.3-31.3,145.6-37.3c72.2-5.2,118.1-28.3,190.3-19.3
		c34.1,4.5,88.2-0.2,120.7-3.2"/>
	<path class="st54" d="M1251.6,305.3c-32.7-0.7-122.9,38.7-139,38.7c-16.8,5-182.2-4.4-191.7-4.5c-43.3,10.5-124,50.1-147.1,51.4
		c-9.1,0.7-146-8.3-163.5-8.2c-4.7,54.8-3.6-10.9-3.6,43.6c0,196.3,178.9,355.4,399.6,355.4s399.6-159.2,399.6-355.4
		c0-55.9-3.9-59.5-29.7-106.6C1333.8,320.6,1301.9,306.3,1251.6,305.3z"/>
	<path class="st55" d="M1524,1080c-358.6-1.3-668.3,0.3-1049.6,0c-79.6-0.1-102.7-443.2-23.2-444.6c319.5-5.5,801.1-1.8,1061.2,0
		C1594.1,635.9,1636,1080.4,1524,1080z"/>
	<polygon class="st56" points="488,717.7 516.6,717 515.4,685.8 1481.4,689.9 1482.3,717.1 1511.1,717.7 1520.8,1022.9 
		1490.5,1022.4 1491.3,1051.4 517.5,1051.4 516.1,1019.9 487,1019.2 	"/>
	<g class="st25">
		<path class="st48" d="M1374.9,320c1.1,67-15.6,120.3-34.3,164.5c-15.4,36.4-32.7,69.4-53.1,93.1c-20.5,23.7-44.3,37.7-69.8,35.3
			c28.9,6.9,57.7,6.5,83.4-9.6c25.7-16.1,48.1-49,60-98.7c12.5-51.5,13-116.7,13.4-179.9"/>
		<g>
			<path class="st48" d="M1373.8,320c0.6,46.6-7.5,92.6-23.4,136.6c-7.9,21.8-17.1,43.3-27.6,64.1c-10.5,20.7-22.5,41.2-38.3,58.8
				c-16.7,18.5-39.6,34.7-66.7,32.4c-1.3-0.1-1.6,1.9-0.3,2.2c26.2,6.1,54.1,6.4,78.2-6.2c17.4-9.1,30.9-23.8,41.1-39.7
				c27.4-43.1,33.6-95.7,36.6-144.9c2.1-32.8,2.2-65.6,2.4-98.4c0-1.4-2.4-1.4-2.4,0c-0.3,53.9,0.2,108.5-9.6,161.8
				c-4.4,23.8-11.1,47.6-22.7,69.3c-8.9,16.7-20.8,32.7-36.9,44c-25.3,17.7-56.6,18.9-86.2,11.9c-0.1,0.7-0.2,1.5-0.3,2.2
				c22.6,1.9,42.8-8.8,58.6-23.2c17.8-16.2,31-36.7,42.4-57.3c22.1-40.5,39.6-84.4,49.3-129c6-27.9,8.7-56.3,8.3-84.7
				C1376.1,318.5,1373.8,318.5,1373.8,320L1373.8,320z"/>
		</g>
	</g>
	<ellipse class="st25" cx="537.1" cy="703.3" rx="16.3" ry="10.8"/>
	<ellipse class="st25" cx="537.1" cy="1036.3" rx="16.3" ry="10.8"/>
	<ellipse class="st25" cx="1461.2" cy="704.4" rx="16.3" ry="10.8"/>
	<ellipse class="st25" cx="1473" cy="1036.3" rx="16.3" ry="10.8"/>
	<path class="st57" d="M650.2,418c3.3,15.6,10.5,47,17.2,60.6c6.3,12.7,23.7,32.8,32.7,42.1c11.3,11.8,48.7,40.5,48.7,40.5
		s-66.9-15.1-84-33.5c-10.4-11.2-22.9-44.9-25.8-62.4c-3.8-22.9,4.8-93.6,4.8-93.6S647.9,406.6,650.2,418z"/>
	<path class="st51" d="M1363.3,632.4c0,0-34.1-8.6-44.3-14.3c-11.7-6.6-32.3-24.6-40.6-35.2c-10.7-13.6-31.8-61.6-31.8-61.6
		l58.4,68.5L1363.3,632.4z"/>
	<path class="st51" d="M1303.4,310.8c0,0-17.9-6-24.7-1c-10.3,7.7-37.1,14.8-48.6,20.5c-14,7-58.2,23.2-58.2,23.2
		s90.9-11.9,118.5-24.4c13.1-5.9,27.9-0.5,17.4-10.5c-9.2-8.8,0,0,0,0L1303.4,310.8z"/>
	<path class="st51" d="M644.9,626.4c0,0,46.8-4.8,62.1-8.3c10.8-2.5,32.6-8.2,41.9-14.3c12-7.9,51.4-48.9,51.4-48.9
		s-6.5,18.4-9.8,26.8c-3.6,9-21.9,31.2-30.1,36.4c-9.9,6.3-44.4,14.6-44.4,14.6l-66.5-0.3L644.9,626.4z"/>
	<path class="st51" d="M1086,632.8c0,0,32.4-37.2,39.1-52.1c10.6-23.4,21.6-74.9,21.2-100.6c-0.2-15.2-14.3-59.2-14.3-59.2
		s57.2,60.5,67,86.1c8.5,22.2,6.6,95,6.6,95v31.4L1086,632.8z"/>
	<polygon class="st52" points="673.5,623.2 681.2,633.2 649.4,632.4 644.9,626.4 	"/>
	<polygon class="st52" points="1343.1,617.7 1337.6,625.2 1363.3,632.4 	"/>
</g>
</svg>
